<svg width="640" height="384" viewBox="0 0 640 384" xmlns="http://www.w3.org/2000/svg"><title>aws-logo</title><g fill-rule="nonzero" fill="none"><path d="M228.664 158.003c0 5.157.557 9.337 1.532 12.403 1.114 3.066 2.506 6.411 4.455 10.034.696 1.115.975 2.23.975 3.206 0 1.393-.836 2.787-2.646 4.18l-8.771 5.854c-1.253.836-2.506 1.254-3.62 1.254-1.392 0-2.785-.697-4.177-1.951a43.11 43.11 0 0 1-5.012-6.55c-1.393-2.37-2.785-5.017-4.317-8.222-10.86 12.82-24.504 19.232-40.934 19.232-11.695 0-21.024-3.345-27.846-10.034C131.481 180.719 128 171.8 128 160.65c0-11.846 4.177-21.462 12.67-28.708 8.493-7.247 19.77-10.87 34.112-10.87 4.734 0 9.607.417 14.758 1.114 5.152.697 10.443 1.812 16.012 3.066V115.08c0-10.592-2.228-17.978-6.544-22.298-4.455-4.32-11.974-6.41-22.695-6.41-4.873 0-9.885.557-15.037 1.811-5.151 1.254-10.164 2.787-15.037 4.738-2.227.976-3.898 1.533-4.873 1.812-.974.279-1.67.418-2.227.418-1.95 0-2.924-1.394-2.924-4.32v-6.829c0-2.23.278-3.902.974-4.878.696-.975 1.95-1.95 3.899-2.926 4.873-2.509 10.72-4.6 17.543-6.271 6.822-1.812 14.062-2.648 21.72-2.648 16.569 0 28.682 3.762 36.479 11.288 7.657 7.526 11.556 18.953 11.556 34.283v45.153h.278zm-56.528 21.183c4.595 0 9.329-.836 14.341-2.508 5.012-1.673 9.468-4.739 13.227-8.92 2.228-2.647 3.899-5.574 4.734-8.919.835-3.344 1.392-7.386 1.392-12.124v-5.853c-4.037-.976-8.354-1.812-12.809-2.37-4.34-.552-8.712-.83-13.088-.836-9.328 0-16.15 1.812-20.745 5.575-4.595 3.763-6.823 9.058-6.823 16.026 0 6.55 1.671 11.428 5.152 14.773 3.342 3.484 8.215 5.156 14.62 5.156h-.001zm111.803 15.051c-2.506 0-4.177-.418-5.29-1.393-1.115-.837-2.09-2.788-2.925-5.435L243.005 79.682c-.835-2.787-1.253-4.599-1.253-5.575 0-2.23 1.114-3.484 3.342-3.484h13.644c2.646 0 4.456.418 5.43 1.394 1.114.836 1.95 2.787 2.785 5.435l23.39 92.258 21.72-92.258c.697-2.787 1.532-4.599 2.646-5.435 1.114-.836 3.063-1.394 5.57-1.394h11.138c2.645 0 4.455.418 5.57 1.394 1.113.836 2.088 2.787 2.645 5.435l21.998 93.372 24.087-93.372c.836-2.787 1.81-4.599 2.785-5.435 1.114-.836 2.924-1.394 5.43-1.394h12.948c2.228 0 3.481 1.115 3.481 3.484 0 .697-.14 1.394-.278 2.23-.14.836-.418 1.951-.975 3.484l-33.555 107.727c-.835 2.787-1.81 4.599-2.924 5.435-1.113.836-2.923 1.394-5.29 1.394h-11.974c-2.646 0-4.456-.418-5.57-1.394-1.113-.976-2.088-2.787-2.645-5.574L325.57 97.52l-21.442 89.75c-.697 2.786-1.532 4.598-2.646 5.574-1.114.975-3.063 1.393-5.569 1.393h-11.974zM462.851 198c-7.24 0-14.48-.836-21.441-2.509-6.962-1.672-12.392-3.484-16.012-5.574-2.228-1.254-3.76-2.648-4.316-3.902a9.845 9.845 0 0 1-.835-3.902v-7.108c0-2.926 1.113-4.32 3.202-4.32.835 0 1.67.14 2.506.418.835.279 2.089.836 3.48 1.394a75.682 75.682 0 0 0 15.316 4.877c5.57 1.115 11 1.673 16.569 1.673 8.771 0 15.594-1.533 20.328-4.6 4.733-3.065 7.24-7.525 7.24-13.238 0-3.903-1.253-7.108-3.76-9.756-2.506-2.648-7.24-5.017-14.062-7.247l-20.189-6.27c-10.163-3.206-17.682-7.945-22.277-14.216-4.594-6.132-6.961-12.96-6.961-20.207 0-5.853 1.253-11.01 3.76-15.47 2.505-4.459 5.847-8.361 10.024-11.427 4.177-3.205 8.91-5.575 14.48-7.247C455.473 67.697 461.32 67 467.446 67c3.063 0 6.265.14 9.328.557 3.203.419 6.127.976 9.05 1.533 2.785.697 5.43 1.394 7.937 2.23 2.506.836 4.455 1.673 5.847 2.509 1.95 1.115 3.342 2.23 4.177 3.484.836 1.115 1.253 2.648 1.253 4.599v6.55c0 2.926-1.113 4.46-3.202 4.46-1.114 0-2.924-.558-5.29-1.673-7.937-3.623-16.848-5.435-26.733-5.435-7.936 0-14.202 1.254-18.518 3.902-4.316 2.648-6.544 6.69-6.544 12.403 0 3.902 1.393 7.247 4.177 9.895 2.785 2.648 7.936 5.296 15.316 7.665l19.77 6.271c10.025 3.205 17.265 7.665 21.581 13.379 4.317 5.714 6.405 12.264 6.405 19.51 0 5.993-1.253 11.428-3.62 16.166-2.506 4.739-5.848 8.92-10.164 12.264-4.316 3.484-9.468 5.993-15.455 7.804-6.265 1.951-12.809 2.927-19.91 2.927z" fill="#252F3E"/><path d="M488.674 266.197C442.844 300.037 376.256 318 319.001 318c-80.239 0-152.538-29.661-207.145-78.958-4.319-3.899-.418-9.19 4.736-6.127 59.065 34.257 131.921 55.006 207.285 55.006 50.846 0 106.707-10.584 158.11-32.307 7.662-3.482 14.21 5.013 6.687 10.583z" fill="#F90"/><path d="M508.777 243.679c-5.888-7.49-38.973-3.607-53.973-1.803-4.486.555-5.187-3.33-1.122-6.242 26.356-18.31 69.675-13.04 74.721-6.936 5.047 6.242-1.402 49.104-26.075 69.634-3.785 3.19-7.43 1.526-5.748-2.636 5.608-13.732 18.085-44.665 12.197-52.017z" fill="#F90"/></g></svg>