<svg width="640" height="384" viewBox="0 0 640 384" xmlns="http://www.w3.org/2000/svg"><title>bootstrap-logo</title><g fill-rule="nonzero" fill="none"><path d="M37 219.653C37 225.92 42.08 231 48.347 231h65.306c6.267 0 11.347-5.08 11.347-11.347v-65.306c0-6.267-5.08-11.347-11.347-11.347H48.347C42.08 143 37 148.08 37 154.347v65.306z" fill="#563D7C"/><path d="M73.815 181.452v-12.396h11.061c1.054 0 2.07.087 3.048.26.978.173 1.844.482 2.596.928a4.979 4.979 0 0 1 1.806 1.855c.451.792.677 1.807.677 3.044 0 2.227-.677 3.835-2.032 4.825-1.354.99-3.085 1.484-5.192 1.484H73.815zM62 160v53h26.037a27.87 27.87 0 0 0 7.036-.89c2.282-.595 4.314-1.51 6.095-2.747 1.78-1.237 3.198-2.833 4.252-4.788 1.053-1.955 1.58-4.268 1.58-6.94 0-3.316-.815-6.15-2.446-8.5-1.63-2.35-4.101-3.996-7.412-4.936 2.408-1.138 4.227-2.598 5.456-4.38 1.229-1.781 1.843-4.008 1.843-6.68 0-2.475-.413-4.553-1.241-6.236-.828-1.682-1.994-3.03-3.5-4.045-1.504-1.015-3.31-1.745-5.417-2.19-2.107-.445-4.44-.668-6.999-.668H62zm11.815 43.944v-14.55h12.867c2.559 0 4.616.582 6.171 1.745 1.555 1.163 2.333 3.105 2.333 5.827 0 1.386-.239 2.524-.715 3.415-.477.89-1.116 1.596-1.92 2.115-.802.52-1.73.891-2.783 1.114-1.09.226-2.2.338-3.312.334H73.815z" fill="#FFF"/><path d="M166.286 153.213c.358-.066.653-.167.946-.167 12.09.047 24.18.03 36.27.198 4.119.056 7.905 1.507 11.29 3.912 7.725 5.488 8.439 21.164-2.167 26.788-.54.286-1.077.575-1.81.965 2.016.924 3.999 1.543 5.66 2.645 6.38 4.23 8.978 13.695 6.122 22.008-2.492 7.252-8.408 10.247-15.29 11.84a31.96 31.96 0 0 1-6.947.812c-11.301.081-22.604.036-34.075.036v-69.037h.001zm12.087 58.92c8.406 0 16.569.19 24.717-.07 5.122-.163 8.823-5.643 8.515-10.974-.304-5.254-3.545-9.722-8.555-9.956-8.078-.376-16.178-.27-24.269-.354-.12 0-.243.177-.408.305v21.049zm.028-30.349c7.513 0 14.759.273 21.972-.09 5.312-.268 8.31-4.508 8.111-10.304-.176-5.13-3.211-8.217-8.676-8.361-6.852-.18-13.71-.096-20.568-.112-.279-.001-.558.15-.839.229v18.638zM553.05 172.3h10.078v5.392c1.122-.864 2.489-1.823 3.75-2.904 7.721-6.615 26.037-5.803 32.306 7.518 5.394 11.465 5.16 22.995-2.122 33.669-4.033 5.912-10.278 8.025-17.352 7.645-6.146-.332-11.557-2.26-15.815-7.94v25.14H553.05l-.001-68.52h.001zm10.238 25.245c.454 2.511.704 5.082 1.406 7.522 1.566 5.446 6.337 9.472 11.279 9.82 6.61.466 11.357-1.972 13.746-7.822 3.037-7.434 2.93-14.932-1.51-21.88-5.234-8.195-17.778-7.51-22.214 1.076-1.826 3.534-2.72 7.254-2.707 11.284zM545.909 215.1c0 2.055.073 4.141-.053 6.217-.03.513-.674 1.378-1.091 1.414-3.143.261-6.338.719-9.441.395-2.736-.285-4.243-2.6-5.086-5.276-6.495 5.278-13.942 6.419-21.864 5.44-6.625-.82-12.112-6.25-12.584-12.278-.652-8.31 2.546-13.72 10.02-15.69 5.243-1.38 10.703-1.935 16.064-2.868 1.3-.226 2.616-.41 3.886-.757 2.44-.665 4.2-2.013 4.378-4.785.185-2.865-.928-5.098-3.626-6.182-4.605-1.85-9.292-1.804-13.826.314-2.068.966-3.297 2.91-4.38 6.21h-10.623c.009-4.042 1.418-7.44 4.108-10.3 3.554-3.779 8.185-5.262 13.173-5.783 5.221-.545 10.413-.52 15.485 1.187 6.822 2.296 10.088 6.788 10.078 13.98-.01 7.633-.003 15.267-.004 22.903-.002 5.418-.003 5.418 5.386 5.859zm-16.418-17.227c-3.348.579-6.41 1.023-9.434 1.654-3.18.664-6.42 1.239-9.451 2.347-2.973 1.087-3.983 3.86-3.884 6.837.093 2.847 2.041 4.442 4.552 5.318 4.306 1.502 8.623 1.317 12.73-.6 2.941-1.374 5.18-3.62 5.444-7.05.217-2.858.043-5.746.043-8.506zm-273.336-27.014c16.66-.196 26.429 11.994 25.398 28.591-.358 5.77-1.91 11.16-5.715 15.72-4.1 4.912-9.374 7.5-15.698 8.201-5.28.588-10.411.242-15.304-1.974-7.287-3.302-11.443-9.064-13.191-16.742-1.2-5.262-1.147-10.502.197-15.708 2.965-11.482 11.824-18.044 24.313-18.088zm-14.502 26.486c.437 2.436.665 4.933 1.352 7.298 1.748 6.019 6.507 9.993 11.949 10.257 6.726.325 11.432-2.5 13.932-8.753 2.44-6.106 2.445-12.354-.231-18.386-3.965-8.936-14.766-11.221-21.721-4.579-3.966 3.787-4.99 8.82-5.281 14.163zm72.302-26.486c15.025-.023 25.25 10.084 25.44 25.117.08 6.348-.956 12.4-4.69 17.718-5.343 7.613-13.061 10.277-21.947 9.873a30.968 30.968 0 0 1-9.72-2.07c-7.165-2.808-11.437-8.335-13.335-15.734-1.666-6.496-1.48-12.951.639-19.301 3.25-9.74 12.168-15.586 23.613-15.603zm14.402 25.136c-.243-1.333-.482-3.91-1.202-6.345-1.83-6.193-6.668-9.953-12.763-10.218-5.74-.25-10.903 3.13-13.13 9.046-2.622 6.97-2.43 13.911 1.522 20.405 4.116 6.764 13.447 8.246 19.567 3.2 4.669-3.852 5.811-9.169 6.006-16.088zm92.903-9.807c-3.43 0-6.769.028-10.105-.036-.411-.008-1.051-.419-1.184-.787-1.876-5.203-6.292-5.821-10.857-5.848-1.894-.01-3.908.45-5.66 1.183-3.747 1.569-4.164 5.8-.653 7.827 2.436 1.406 5.296 2.161 8.044 2.933 3.887 1.093 7.9 1.751 11.762 2.916 9.876 2.98 13.736 12.863 8.206 21.01-2.652 3.908-6.619 6.023-11.167 7.119-6.722 1.619-13.414 1.738-19.983-.63-7.03-2.535-10.742-7.623-11.29-15.323h10.725c3.05 7.945 11.666 11.04 19.74 6.98 1.866-.94 3.113-2.277 3.238-4.473.133-2.348-.776-4.367-2.887-5.153-3.763-1.402-7.694-2.362-11.558-3.493-3.2-.937-6.502-1.614-9.59-2.834-5.958-2.355-8.546-6.406-8.51-12.584.032-5.387 3.187-10.003 8.782-12.028 7.7-2.787 15.557-3.134 23.29-.11 5.23 2.045 8.346 6.077 9.642 11.506.117.5.015 1.056.015 1.825zm-58.23-14.026h9.927v8.102h-9.727c-.069.97-.157 1.65-.159 2.328-.01 8.178-.013 16.356.004 24.533.002 1.088.086 2.18.194 3.264.214 2.162 1.416 3.447 3.597 3.565 2 .11 4.01.023 6.126.023v8.102c-4.534 1.12-9.142 1.061-13.603.07-5.194-1.155-7.304-4.723-7.35-11.475-.062-9.19-.018-18.382-.02-27.572V180.4h-8.245v-8.195h8.133v-15.007h11.125c-.002 4.91-.002 9.782-.002 14.964zm92.838 50.23c-4.271 0-8.315.132-12.345-.039-3.906-.165-6.914-2.75-7.767-6.61a32.708 32.708 0 0 1-.77-6.7c-.085-8.646-.035-17.294-.035-25.942v-2.734h-8.217v-8.087h8.095v-15.067h11.145v14.823h9.88v8.145h-9.48c-.113.734-.261 1.242-.261 1.75-.008 8.804-.037 17.607.02 26.41.031 4.656 1.252 5.776 5.875 5.743 1.235-.008 2.472 0 3.86 0v8.308zm18.539-50.063v8.525c4.28-7.253 10.204-11.033 18.952-9.745v10.517c-4.156-.623-8.164-.734-11.714 1.812-4.657 3.341-6.283 8.224-6.399 13.606-.179 8.32-.046 16.648-.046 25.154h-10.917v-49.87l10.124.001z" fill="#573E7D"/></g></svg>