<svg width="640" height="384" viewBox="0 0 640 384" xmlns="http://www.w3.org/2000/svg"><title>cloudinary-logo</title><g fill-rule="nonzero" fill="none"><path d="M179.996 232.44a4.725 4.725 0 0 1-4.487-3.25 4.713 4.713 0 0 1 3.02-5.947c8.98-2.935 14.784-10.797 14.784-20.027 0-11.692-9.525-21.204-21.231-21.204-.814 0-1.69.064-2.754.202l-4.618.597-.662-4.603c-2.836-19.737-20.053-34.621-40.05-34.621-16.53 0-31.244 9.882-37.486 25.177l-1.174 2.876-3.11.058c-14.292.262-25.918 12.081-25.918 26.346 0 10.414 6.054 19.91 15.423 24.191a4.712 4.712 0 0 1 2.327 6.25 4.726 4.726 0 0 1-6.257 2.326c-12.717-5.814-20.936-18.675-20.936-32.767 0-18.338 14.148-33.698 32.12-35.585 8.28-17.288 25.633-28.3 45.013-28.3 23.195 0 43.357 16.24 48.586 38.43 16.683.27 30.171 13.905 30.171 30.628 0 13.177-8.557 24.827-21.291 28.988-.487.16-.982.235-1.47.235z" fill="#0071CE"/><path d="M107.85 234.631l-.002-.001c-.002 0-.002 0-.003-.002h-.002-.006c0 .002-.002 0-.002 0h-.003-.007-.001-.002l-.005-.001c-.001-.002-.003-.002-.004-.002 0 0-.002 0-.002-.002h-.006l-.002-.001h-.002a.786.786 0 0 0-.232-.045H107.541h-.011-.005-.002a3.736 3.736 0 0 1-3.728-3.697v-41.51h3.183c.484.02.815-.352.815-.8a.8.8 0 0 0-.495-.739l-15.276-10.529a.8.8 0 0 0-.909 0l-15.396 10.612a.8.8 0 0 0 .456 1.457h3.183l.001 41.497c.016 2.869 2.324 5.21 5.26 5.286.034.003.066.006.1.006H107.536a.8.8 0 0 0 .54-.222l.007-.006.003-.004.002-.001.001-.002a.8.8 0 0 0 .226-.55v-.002-.005a.797.797 0 0 0-.466-.737z" fill="#DC8327"/><path d="M140.882 234.631c0-.001-.001-.001 0 0-.003-.001-.005-.001-.006-.003h-.002-.003-.002c-.001.002-.001 0-.003 0h-.008-.005l-.004-.001c-.002-.002-.004-.002-.005-.002 0 0-.002 0-.002-.002h-.006l-.003-.001h-.002a.786.786 0 0 0-.232-.045h-.011-.007-.004-.002a3.734 3.734 0 0 1-3.727-3.697v-32.221h3.183c.011 0 .021-.002.032 0a.8.8 0 0 0 .304-1.538l-15.278-10.53a.8.8 0 0 0-.908 0l-15.42 10.611a.8.8 0 0 0 .456 1.457h3.168l.002 32.208c.014 2.87 2.325 5.213 5.262 5.285a.965.965 0 0 0 .096.005H140.564a.8.8 0 0 0 .54-.222c.002-.002.007-.005.007-.007l.003-.003.002-.001c.003 0 .001 0 .001-.002a.8.8 0 0 0 .226-.551v-.002-.004a.781.781 0 0 0-.46-.734z" fill="#F4B21B"/><path d="M173.926 234.631c0-.001-.002-.001 0 0l-.005-.001h-.001-.002-.002-.006-.006s0-.002-.002 0h-.003c-.002 0-.003 0-.005-.002l-.005-.001h-.001l-.004-.002H173.875a.786.786 0 0 0-.232-.045h-.034-.004-.002a3.734 3.734 0 0 1-3.727-3.697v-22.938h3.191c.45-.011.816-.351.816-.799a.8.8 0 0 0-.496-.74l-15.278-10.528a.8.8 0 0 0-.908 0l-15.394 10.61a.8.8 0 0 0 .455 1.457h3.175l.002 22.92c.016 2.87 2.327 5.213 5.262 5.285a.965.965 0 0 0 .096.005H173.616a.8.8 0 0 0 .54-.222l.007-.006.003-.003.002-.002c.003 0 0 0 .001-.002a.8.8 0 0 0 .226-.55v-.002-.005a.8.8 0 0 0-.469-.732z" fill="#F2D864"/><path d="M322.171 199.507c-1.657-1.799-3.735-3.222-6.172-4.228-2.484-1.019-5.377-1.543-8.6-1.556-3.218.013-6.113.537-8.595 1.556-2.438 1.006-4.516 2.428-6.174 4.228-1.692 1.851-2.927 3.932-3.77 6.36-.859 2.436-1.292 5.114-1.292 7.965 0 2.166.224 4.28.668 6.287a19.797 19.797 0 0 0 2.107 5.515 15.759 15.759 0 0 0 3.733 4.38c1.513 1.247 3.39 2.231 5.582 2.924 2.19.705 4.796 1.069 7.742 1.082 2.947-.013 5.55-.377 7.738-1.082 2.193-.693 4.07-1.675 5.582-2.923a15.666 15.666 0 0 0 3.741-4.386 19.9 19.9 0 0 0 2.104-5.512c.45-1.982.668-4.037.668-6.286 0-2.848-.435-5.528-1.292-7.964-.841-2.426-2.076-4.507-3.77-6.36zm-5.088 19.366c-.37 1.573-.974 3.02-1.797 4.295a9.287 9.287 0 0 1-3.206 3.05c-1.314.739-2.885 1.119-4.672 1.132-1.793-.013-3.358-.393-4.665-1.13a9.327 9.327 0 0 1-3.226-3.052c-.805-1.244-1.408-2.688-1.796-4.295-.378-1.56-.57-3.257-.57-5.037 0-1.866.2-3.623.595-5.22.384-1.593 1.003-3.03 1.844-4.266a9.04 9.04 0 0 1 3.234-2.907c1.29-.68 2.828-1.03 4.573-1.045h.013c1.739.014 3.279.364 4.58 1.042a9.101 9.101 0 0 1 3.224 2.906c.834 1.232 1.458 2.666 1.856 4.271.39 1.612.584 3.366.584 5.22-.001 1.776-.193 3.473-.57 5.036zM351.99 233.165c1.58-.575 2.983-1.36 4.17-2.333a19.49 19.49 0 0 0 3.356-3.51l.235-.314h1.174l.152.78v1.45c0 1.014.152 1.876.462 2.64.293.675.733 1.191 1.339 1.559.61.378 1.438.575 2.464.586 1.01-.011 1.838-.208 2.443-.582.61-.372 1.05-.886 1.348-1.576.307-.75.457-1.612.457-2.626V198.51c.012-.902-.134-1.734-.428-2.485-.26-.688-.715-1.222-1.392-1.645-.695-.423-1.7-.645-2.978-.657-1.255.012-2.255.235-2.957.662-.669.416-1.13.953-1.401 1.64-.294.749-.438 1.583-.427 2.476v18.384c-.015 1.531-.291 2.854-.85 4.053-.554 1.178-1.287 2.182-2.181 2.994a9.79 9.79 0 0 1-2.973 1.864c-1.125.43-2.185.64-3.254.64-1.74-.014-3.208-.388-4.37-1.11-1.167-.738-2.046-1.768-2.62-3.067-.541-1.217-.816-2.667-.816-4.304V198.51a6.534 6.534 0 0 0-.43-2.485c-.274-.693-.728-1.23-1.392-1.642-.694-.423-1.7-.645-2.978-.658-1.264.011-2.268.235-2.969.661-.659.417-1.116.957-1.386 1.64a6.462 6.462 0 0 0-.427 2.475v21.664c.022 2.703.422 4.974 1.183 6.745.761 1.759 1.782 3.174 3.034 4.204a11.736 11.736 0 0 0 4.242 2.243c1.538.45 3.064.669 4.669.669h.13c2.002-.016 3.809-.305 5.372-.86zM278.625 179.241c-.742-.36-1.591-.538-2.586-.538-.98 0-1.854.184-2.596.543a3.677 3.677 0 0 0-1.593 1.545c-.388.7-.592 1.61-.601 2.704v45.741c.011 1.086.214 1.996.601 2.698.376.677.9 1.18 1.606 1.538.728.364 1.6.55 2.585.55.998 0 1.845-.18 2.59-.552a3.674 3.674 0 0 0 1.6-1.535c.389-.7.592-1.61.603-2.705v-45.742c-.013-1.087-.216-1.996-.603-2.696a3.688 3.688 0 0 0-1.606-1.55zM591.807 196.84a5.189 5.189 0 0 0-.801-1.424c-.365-.456-.863-.846-1.51-1.182-.634-.327-1.445-.5-2.412-.51-.864.01-1.574.188-2.151.544a4.448 4.448 0 0 0-1.474 1.493c-.406.682-.72 1.45-.956 2.339l-6.951 25.819h-1.196l-.314-.574-7.176-26c-.31-1.119-.872-1.978-1.718-2.625-.872-.658-1.94-.984-3.26-.997-.867.012-1.638.208-2.333.6a4.522 4.522 0 0 0-1.66 1.614c-.421.677-.628 1.446-.64 2.353 0 .35.046.738.134 1.143.098.45.243.957.437 1.537.203.623.457 1.367.761 2.24l11.682 33.233-.056.226c-.304 1.216-.712 2.14-1.209 2.746-.528.623-1.126 1.02-1.785 1.188-.483.115-.953.17-1.412.17l-.288-.007h-1.102c-.907 0-1.67.144-2.327.44-.63.273-1.123.68-1.473 1.215-.347.542-.523 1.22-.533 2.073 0 .767.197 1.454.601 2.086.415.65 1.048 1.161 1.944 1.564.921.431 2.162.655 3.7.668 1.65 0 3.099-.232 4.303-.687a8.72 8.72 0 0 0 3.146-2.02c.931-.929 1.766-2.085 2.486-3.435.74-1.43 1.44-3.089 2.076-4.92l12.905-36.528c.261-.707.458-1.332.605-1.894.125-.514.19-.973.19-1.353-.003-.187-.041-.535-.233-1.135zM520.151 228.108c-.16-.559-.292-1.207-.419-2.047-.115-.765-.172-1.716-.185-2.992V204.38c-.011-1.858-.42-3.458-1.21-4.752-.813-1.346-1.938-2.42-3.44-3.29-1.517-.88-3.362-1.541-5.474-1.968-2.136-.428-4.554-.645-7.188-.645-.352.002-.7.008-1.043.02l-.278.023a30.71 30.71 0 0 0-2.929.248l-.417.067a22.865 22.865 0 0 0-2.718.565c-2.11.585-3.9 1.363-5.329 2.313-1.428.955-2.501 1.976-3.19 3.03-.693 1.064-1.032 2.05-1.032 3.017.01.632.17 1.2.486 1.717.32.524.764.94 1.364 1.271.597.32 1.312.49 2.115.5.684-.01 1.303-.183 1.82-.512a10.81 10.81 0 0 0 1.701-1.406 24.443 24.443 0 0 1 2.044-1.86c.805-.652 1.777-1.187 2.967-1.636.507-.189 1.102-.339 1.819-.462.142-.025.297-.043.454-.06l.18-.02c.57-.07 1.197-.137 1.903-.143 1.358 0 2.607.169 3.717.503 1.198.36 2.17.939 2.895 1.717.779.808 1.185 1.864 1.2 3.127-.014 1.243-.276 2.183-.799 2.899-.536.693-1.243 1.184-2.114 1.473-.76.257-1.635.436-2.601.531l-6.786.762a38.448 38.448 0 0 0-5.93 1.096c-1.802.502-3.392 1.208-4.718 2.094a9.245 9.245 0 0 0-3.088 3.448c-.749 1.427-1.134 3.243-1.145 5.4.01 1.607.347 3.086 1 4.388a10.119 10.119 0 0 0 2.637 3.32 12.267 12.267 0 0 0 3.792 2.125c1.443.5 2.879.744 4.386.744h.176c1.83 0 3.595-.198 5.244-.589.312-.073.62-.155.924-.246.236-.069.463-.158.691-.247l.627-.234c.15-.05.296-.1.44-.163.82-.343 1.537-.698 2.188-1.082 1.53-.91 3.014-2.146 4.403-3.668l1.296-1.42.064 1.92a8.033 8.033 0 0 0 .636 2.922c.37.833.947 1.495 1.761 2.01.813.516 1.955.783 3.393.794.788-.01 1.5-.166 2.156-.473a3.867 3.867 0 0 0 1.53-1.249c.364-.506.555-1.103.565-1.78 0-.328-.048-.662-.152-1.04l-.389-1.37zm-10.188-8.708a7.914 7.914 0 0 1-.747 3.327c-.504 1.064-1.204 1.99-2.145 2.843-.914.82-2.039 1.478-3.346 1.96-.545.198-1.164.36-1.895.492l-.325.06c-.729.116-1.439.175-2.167.181-1.406-.014-2.62-.246-3.62-.69-1.04-.457-1.867-1.099-2.454-1.908a4.617 4.617 0 0 1-.898-2.757c0-1.276.331-2.363.984-3.228.632-.85 1.56-1.527 2.75-2.008 1.138-.46 2.523-.807 4.116-1.029l4.04-.608c.42-.072.931-.171 1.504-.296a10.896 10.896 0 0 0 1.636-.496 4.043 4.043 0 0 0 1.262-.767l1.307-1.187v6.111h-.002zM237.941 188.222a13.572 13.572 0 0 1 5.899-1.32c2.026.012 3.653.271 4.98.79 1.31.494 2.433 1.161 3.325 1.982a15.926 15.926 0 0 1 2.198 2.518c.58.829 1.147 1.622 1.71 2.363a6.52 6.52 0 0 0 1.807 1.634c.665.405 1.526.614 2.556.625 1.628-.011 2.861-.438 3.651-1.268.805-.828 1.21-2.034 1.21-3.592 0-.94-.288-2.02-.854-3.21-.586-1.192-1.469-2.41-2.62-3.607-1.155-1.201-2.614-2.324-4.338-3.337-1.713-1.008-3.735-1.832-6.006-2.448-2.28-.62-4.846-.94-7.624-.95-3.413.01-6.556.5-9.338 1.454-2.746.957-5.196 2.31-7.278 4.022a23.871 23.871 0 0 0-5.22 6.074 28.615 28.615 0 0 0-3.185 7.672 35.465 35.465 0 0 0-1.069 8.74c.024 6.165 1.096 11.385 3.186 15.507 2.083 4.102 5.115 7.23 9.01 9.296 3.953 2.097 8.784 3.16 14.353 3.163 2.964-.024 5.75-.465 8.28-1.307 2.546-.864 4.797-2.027 6.687-3.453 1.905-1.449 3.396-3.073 4.43-4.83 1.039-1.756 1.573-3.578 1.584-5.418-.02-.829-.26-1.527-.73-2.11-.5-.608-1.156-1.078-1.946-1.391a6.918 6.918 0 0 0-2.652-.518c-.815.012-1.514.22-2.128.64-.639.448-1.232 1.033-1.803 1.785a105.24 105.24 0 0 0-1.831 2.51 19.18 19.18 0 0 1-2.241 2.631c-.869.855-1.937 1.567-3.17 2.114-1.262.546-2.764.829-4.472.843-2.825-.014-5.262-.553-7.257-1.602a13.239 13.239 0 0 1-4.876-4.332c-1.21-1.805-2.104-3.895-2.658-6.216-.55-2.303-.824-4.765-.811-7.315.014-3.035.407-5.786 1.169-8.175.782-2.409 1.871-4.466 3.234-6.119 1.393-1.685 3.02-2.977 4.838-3.845zM413.627 183.488c0-1.07-.203-1.977-.601-2.696a3.688 3.688 0 0 0-1.606-1.55c-1.435-.708-3.687-.721-5.182.006a3.677 3.677 0 0 0-1.593 1.544c-.387.698-.59 1.607-.602 2.706v15.868h-1.217l-.382-.37a10.735 10.735 0 0 0-4.166-3.89 11.14 11.14 0 0 0-1.513-.637c-.098-.033-.197-.06-.296-.088l-.223-.064a12.45 12.45 0 0 0-1.154-.292l-.188-.048c-.2-.041-.342-.057-.484-.073l-.726-.094a16.842 16.842 0 0 0-1.584-.088c-2.247.013-4.27.37-6.004 1.063a13.98 13.98 0 0 0-4.571 2.914c-1.304 1.25-2.364 2.685-3.245 4.383a22.087 22.087 0 0 0-1.928 5.433 28.348 28.348 0 0 0-.644 6.089c.025 3.51.49 6.585 1.38 9.133.896 2.56 2.127 4.69 3.664 6.333 1.523 1.651 3.305 2.904 5.3 3.725a16.765 16.765 0 0 0 6.357 1.225c.843 0 1.667-.058 2.444-.173.848-.13 1.633-.311 2.364-.55 1.442-.485 2.712-1.216 3.765-2.175 1.052-.934 1.878-2.151 2.458-3.622l.195-.494h1.313l.152.781v1.754c.011 1.51.37 2.647 1.069 3.375.702.733 1.777 1.105 3.189 1.105 1.467 0 2.554-.369 3.232-1.097.68-.732 1.026-1.869 1.026-3.383v-46.053h.001zm-9.475 35.233c-.336 1.524-.892 2.912-1.654 4.12a8.635 8.635 0 0 1-3.029 2.939 7.31 7.31 0 0 1-1 .484c-.094.036-.196.067-.297.097l-.232.073a6.127 6.127 0 0 1-.558.171c-.118.03-.243.05-.368.069l-.153.026c-.312.06-.474.092-.645.113-.134.016-.275.022-.414.029l-.352.02c-.167.013-.331.026-.504.028-1.652-.055-3.087-.441-4.296-1.15a9.05 9.05 0 0 1-3.03-2.858c-.773-1.18-1.36-2.546-1.747-4.066-.38-1.478-.571-3.104-.571-4.832 0-1.115.084-2.255.249-3.39.17-1.16.46-2.323.865-3.454.42-1.15.998-2.2 1.723-3.129a7.996 7.996 0 0 1 2.799-2.289c1.097-.562 2.444-.856 3.995-.87h.007c.208 0 .404.014.601.03l.342.02c.131.006.26.012.383.028a7.3 7.3 0 0 1 .617.109l.272.05c.11.018.22.037.323.065.23.059.448.137.662.217l.194.067c.09.029.185.059.27.096a7.21 7.21 0 0 1 1.016.532 8.81 8.81 0 0 1 3.013 3.19 14.582 14.582 0 0 1 1.572 4.21c.315 1.578.46 3.057.45 4.526 0 1.698-.165 3.247-.503 4.73zM552.047 201.205c.451-.703.683-1.663.694-2.856-.011-.893-.232-1.674-.678-2.367-.44-.687-1.064-1.235-1.854-1.63-.804-.413-1.718-.617-2.802-.629-1.193.012-2.268.26-3.178.737a7.602 7.602 0 0 0-2.38 1.963c-.68.846-1.26 1.806-1.722 2.846a21.23 21.23 0 0 0-1.195 3.33l-.154.578h-1.382l-.152-.78v-4.27c-.012-.971-.204-1.799-.574-2.45-.372-.647-.859-1.122-1.484-1.444-.648-.34-1.385-.511-2.2-.511-.813 0-1.55.17-2.194.508-.63.325-1.116.798-1.492 1.452-.366.646-.558 1.472-.57 2.453v31.101c-.012.9.132 1.731.43 2.485.265.674.725 1.208 1.405 1.633.682.432 1.675.656 2.958.669 1.28-.013 2.279-.237 2.968-.67.669-.416 1.124-.95 1.395-1.632.296-.747.44-1.581.428-2.474v-12.97c0-3.157.272-5.618.832-7.527.589-1.984 1.472-3.428 2.623-4.293 1.137-.87 2.53-1.315 4.136-1.315l2.124.002c.85 0 1.633-.157 2.329-.467a3.746 3.746 0 0 0 1.689-1.472zM472.057 196.637a11.757 11.757 0 0 0-4.245-2.246 16.411 16.411 0 0 0-4.67-.67c-2.164.014-3.968.303-5.494.857-1.584.576-2.988 1.36-4.173 2.333a19.53 19.53 0 0 0-3.356 3.51l-.233.316h-1.176l-.153-.781v-1.449c0-1.014-.155-1.9-.46-2.637a3.289 3.289 0 0 0-1.34-1.565c-.627-.388-1.452-.585-2.455-.585-1.002 0-1.828.197-2.452.582-.612.373-1.052.888-1.348 1.576-.302.728-.457 1.616-.457 2.627v30.728c-.011.902.132 1.736.428 2.483.266.673.725 1.208 1.4 1.636.688.43 1.687.655 2.972.666 1.27-.011 2.27-.236 2.962-.67.668-.416 1.124-.95 1.394-1.632a6.47 6.47 0 0 0 .427-2.472v-18.382c.016-1.537.293-2.86.851-4.054.555-1.177 1.288-2.184 2.182-2.993a9.774 9.774 0 0 1 2.972-1.863 8.707 8.707 0 0 1 3.254-.639c1.753.013 3.223.388 4.375 1.11 1.163.737 2.04 1.764 2.613 3.051.544 1.233.82 2.685.82 4.32v19.444c-.012.902.132 1.734.428 2.485.265.674.726 1.207 1.406 1.632.692.431 1.685.657 2.957.67 1.28-.013 2.28-.237 2.972-.67.681-.425 1.135-.957 1.386-1.621.301-.759.445-1.59.434-2.485v-21.667c-.024-2.704-.422-4.975-1.184-6.745-.772-1.776-1.793-3.19-3.037-4.2zM429.807 194.38c-.696-.423-1.702-.645-2.98-.657-1.247.012-2.274.24-2.954.66-.67.418-1.13.957-1.403 1.642a6.483 6.483 0 0 0-.427 2.474v30.739c-.012.899.131 1.731.429 2.485.265.674.726 1.207 1.406 1.632.681.433 1.674.657 2.957.67 1.28-.013 2.28-.237 2.972-.67.665-.417 1.121-.95 1.391-1.632.296-.748.44-1.581.429-2.474V198.51c.011-.902-.134-1.734-.429-2.485-.275-.693-.729-1.232-1.391-1.645zM429.285 179.366a4.888 4.888 0 0 0-2.448-.66c-.906.011-1.726.233-2.449.66a4.897 4.897 0 0 0-1.747 1.744 4.871 4.871 0 0 0-.66 2.445c.011.904.233 1.724.66 2.446a4.91 4.91 0 0 0 1.747 1.744c.725.425 1.543.648 2.449.66.905-.012 1.724-.234 2.448-.66a4.91 4.91 0 0 0 1.747-1.744c.425-.724.65-1.542.66-2.446-.01-.904-.233-1.723-.66-2.445a4.91 4.91 0 0 0-1.747-1.744z" fill="#0E2F5A"/></g></svg>