<svg width="640" height="384" viewBox="0 0 640 384" xmlns="http://www.w3.org/2000/svg"><title>css3-logo</title><g fill-rule="nonzero" fill="none"><path fill="#0070B8" d="M319.861 352.187l-92.787-25.798-20.678-232.268h227.208l-20.7 232.232z"/><path fill="#29A6DE" d="M395.184 311.565l17.688-198.453H320V332.44l75.184-20.875z"/><path d="M253.799 199.257l2.549 28.487H320v-28.487h-66.201zm-5.123-57.658l2.586 28.487H320V141.6h-71.324v-.001zM320 273.24l-.125.033-31.677-8.566-2.026-22.72H257.62l3.984 44.73 58.266 16.197.131-.035V273.24H320z" fill="#EBEBEB"/><path d="M262.085 31h34.988v14.654h-20.356v14.654h20.357V74.96h-34.989V31zm41.986 0h34.988v12.56h-20.356v2.512h20.356v28.889h-34.987V61.77h20.357v-2.512H304.07V31h.001zm41.987 0h34.988v12.56H360.69v2.512h20.356v28.889h-34.988V61.77h20.356v-2.512H346.06V31h-.002z" fill="#000"/><path fill="#FFF" d="M386.02 199.257l5.134-57.658h-71.252v28.487h40.08l-2.588 29.171h-37.492v28.487h35.026l-3.303 36.945-31.724 8.575v29.637l58.312-16.185.428-4.813 6.685-74.996.693-7.65z"/></g></svg>