<svg width="640" height="384" viewBox="0 0 640 384" xmlns="http://www.w3.org/2000/svg"><title>github-logo</title><g fill-rule="nonzero" fill="none"><path d="M325.123 186.099h-27.714c-.715 0-1.294.578-1.295 1.291v13.508c0 .713.58 1.292 1.295 1.293h10.811v16.782s-2.427.826-9.139.826c-7.917 0-18.978-2.885-18.978-27.133 0-24.252 11.517-27.444 22.33-27.444 9.36 0 13.393 1.644 15.958 2.435.807.246 1.552-.553 1.552-1.268l3.092-13.05c0-.334-.113-.736-.495-1.01-1.042-.74-7.399-4.287-23.459-4.287-18.5 0-37.478 7.848-37.478 45.57 0 37.724 21.728 43.345 40.037 43.345 15.16 0 24.357-6.459 24.357-6.459.379-.21.42-.737.42-.98V187.39c0-.712-.58-1.29-1.294-1.29v-.001zm142.823-33.537a1.285 1.285 0 0 0-1.286-1.298h-15.605a1.3 1.3 0 0 0-1.292 1.298l.004 30.064h-24.323v-30.064a1.286 1.286 0 0 0-1.288-1.298h-15.603a1.294 1.294 0 0 0-1.29 1.298v81.404c0 .717.58 1.301 1.29 1.301h15.603c.714 0 1.288-.584 1.288-1.301v-34.82h24.323l-.043 34.82c0 .717.58 1.301 1.293 1.301h15.642c.715 0 1.286-.584 1.287-1.301v-81.404zM354.57 163.245c0-5.602-4.505-10.129-10.063-10.129-5.552 0-10.06 4.527-10.06 10.129 0 5.595 4.508 10.134 10.06 10.134 5.558 0 10.063-4.539 10.063-10.134zm-1.116 53.55v-37.577c0-.714-.577-1.294-1.291-1.297h-15.555c-.714 0-1.352.734-1.352 1.448v53.834c0 1.583.988 2.053 2.268 2.053h14.015c1.538 0 1.915-.753 1.915-2.078v-16.384.001zm173.796-38.751h-15.485c-.71 0-1.288.583-1.288 1.301v39.915s-3.934 2.87-9.517 2.87c-5.584 0-7.065-2.526-7.065-7.976v-34.809c0-.718-.577-1.301-1.287-1.301H476.89c-.708 0-1.29.583-1.29 1.301v37.444c0 16.188 9.05 20.149 21.501 20.149 10.214 0 18.448-5.625 18.448-5.625s.392 2.964.57 3.315c.177.351.64.705 1.139.705l9.999-.044a1.3 1.3 0 0 0 1.29-1.3l-.006-54.643c0-.719-.579-1.302-1.292-1.302h.001zm36.214 44.036c-5.37-.163-9.014-2.593-9.014-2.593v-25.778s3.594-2.196 8.003-2.59c5.577-.497 10.95 1.182 10.95 14.443 0 13.984-2.425 16.743-9.939 16.518zm6.108-45.864c-8.795 0-14.777 3.912-14.777 3.912v-27.565c0-.719-.576-1.299-1.288-1.299h-15.648a1.298 1.298 0 0 0-1.29 1.299v81.403c0 .717.579 1.301 1.292 1.301h10.858c.488 0 .858-.251 1.132-.69.27-.438.659-3.754.659-3.754s6.399 6.046 18.512 6.046c14.22 0 22.376-7.192 22.376-32.283 0-25.092-13.025-28.37-21.826-28.37zm-171.27 1.698h-11.706l-.018-15.417c0-.583-.301-.875-.977-.875h-15.952c-.62 0-.953.273-.953.867v15.931s-7.993 1.923-8.534 2.08a1.29 1.29 0 0 0-.934 1.24v10.011c0 .72.577 1.3 1.29 1.3h8.178v24.083c0 17.889 12.586 19.646 21.08 19.646 3.88 0 8.523-1.242 9.29-1.525.463-.17.732-.648.732-1.167l.013-11.013c0-.719-.609-1.299-1.294-1.299-.682 0-2.427.277-4.223.277-5.75 0-7.698-2.665-7.698-6.115V193.05H398.3c.714 0 1.291-.58 1.291-1.3v-12.54a1.288 1.288 0 0 0-1.29-1.296h.001z" fill="#121110"/><g fill="#161614"><path d="M135.66 107C87.253 107 48 146.203 48 194.564c0 38.688 25.117 71.51 59.947 83.09 4.381.81 5.99-1.9 5.99-4.213 0-2.088-.082-8.986-.12-16.303-24.387 5.297-29.533-10.331-29.533-10.331-3.987-10.122-9.733-12.812-9.733-12.812-7.953-5.435.6-5.324.6-5.324 8.803.618 13.438 9.024 13.438 9.024 7.818 13.387 20.506 9.516 25.509 7.28.786-5.66 3.058-9.523 5.565-11.71-19.47-2.214-39.938-9.723-39.938-43.274 0-9.56 3.424-17.372 9.032-23.504-.91-2.205-3.91-11.111.85-23.173 0 0 7.36-2.353 24.112 8.976 6.992-1.94 14.49-2.913 21.94-2.946 7.45.033 14.955 1.006 21.96 2.946 16.733-11.329 24.083-8.976 24.083-8.976 4.772 12.062 1.77 20.968.86 23.173 5.62 6.132 9.021 13.943 9.021 23.504 0 33.631-20.507 41.037-40.026 43.204 3.144 2.718 5.945 8.047 5.945 16.216 0 11.716-.101 21.145-.101 24.03 0 2.33 1.577 5.06 6.021 4.2 34.811-11.591 59.897-44.402 59.897-83.077 0-48.361-39.248-87.564-87.66-87.564"/><path d="M80.832 231.737c-.193.434-.88.565-1.503.267-.636-.286-.993-.88-.787-1.316.19-.448.875-.573 1.51-.272.637.285 1 .884.78 1.32m4.312 3.844c-.418.387-1.236.207-1.79-.405-.574-.61-.681-1.426-.257-1.82.43-.386 1.224-.206 1.798.405.574.618.685 1.429.248 1.82m2.959 4.917c-.538.373-1.416.023-1.959-.756-.537-.778-.537-1.712.012-2.086.544-.374 1.41-.038 1.96.735.536.792.536 1.726-.014 2.107m5.003 5.695c-.48.529-1.503.387-2.253-.335-.766-.706-.98-1.708-.498-2.238.487-.53 1.516-.38 2.27.336.762.704.994 1.714.482 2.237m6.464 1.923c-.21.685-1.197.997-2.19.706-.99-.3-1.64-1.104-1.44-1.797.207-.69 1.197-1.015 2.197-.703.99.299 1.64 1.096 1.434 1.794m7.358.815c.025.722-.817 1.321-1.86 1.334-1.048.023-1.895-.561-1.906-1.272 0-.729.822-1.322 1.87-1.34 1.043-.02 1.896.56 1.896 1.278m7.229-.277c.125.705-.6 1.429-1.634 1.621-1.018.185-1.96-.25-2.09-.948-.126-.722.612-1.445 1.628-1.633 1.036-.18 1.964.244 2.096.96"/></g></g></svg>