<svg width="640" height="384" viewBox="0 0 640 384" xmlns="http://www.w3.org/2000/svg"><title>gulp-logo</title><path d="M149.518 210.569c-.622-5.95 13.093-14.569 9.573-14.845-7.577.43-11.348 8.828-15.16 17.622-1.398 3.223-6.178 16.966-9.314 15.274-3.134-1.69 4.064-12.992 6.082-19.704-2.328 1.697-10.866 8.29-13.066 2.116-3.538 2.986-11.096 4.604-10.244-3.24-1.882 3.313-6.105 7.94-11.175 6.017-6.658-2.524 3.858-23.606 6.473-22.543 2.615 1.064-.528 5.866-1.351 7.731-1.81 4.104-3.902 9.264-2.505 10.32 2.394 1.81 8.907-6.845 9.051-7.036 1.219-1.6 4.689-12.065 7.486-10.864 2.797 1.202-6.977 15.02-3.322 17.763.737.553 3.752-.341 5.587-2.314 1.187-1.276.778-4.103 4.735-13.482 3.956-9.38 7.482-21.06 10.196-20.17 2.713.89.477 6.885-.497 9.12-4.567 10.488-12.466 27.816-8.741 26.505 3.725-1.312 5.665-1.389 9.312-5.632 3.648-4.243 3.48-11.232 5.911-11.084 2.432.15 2.024 2.39 1.434 4.096 2.393-2.722 11.343-8.454 13.504-2.777 2.56 6.722-12.805 16.432-8.974 15.937 3.735-.483 9.786-4.293 12.37-7.756l7.11-63.554s-7.155 5.887-52.68 5.887c-45.527 0-51.943-5.764-51.943-5.764l6.055 58.009c3.213-9.08 10.845-27.444 22.873-26.827 5.472.28 12.776 10.753 6.52 11.108-2.649.15-2.918-5.227-6.054-6.017-2.263-.57-5.414 1.259-7.45 3.24-4.061 3.951-12.795 19.538-11.641 27.31 1.47 9.907 13.753-3.443 15.832-7.407 1.463-2.792 2.452-11.064 5.653-10.196 3.202.868-.28 9.405-2.6 16.953-2.606 8.475-3.977 17.415-7.244 16.387-3.268-1.028 2.055-11.97 1.862-13.886-3.071 2.817-8.73 9.948-15.968 6.418l3.76 36.023s9.993 7.85 40.097 7.85 40.468-7.727 40.468-7.727l4.668-41.724c-3.82 3.698-15.909 10.264-16.683 2.863zm1.263 91.377l2.258-37.41 6.236-10.582s-14.193 5.772-37.956 5.772c-23.763 0-37.741-5.665-37.741-5.665l6.989 11.543 2.472 36.342c0 3.896 12.926 7.054 28.871 7.054 15.945 0 28.87-3.158 28.87-7.054h.001zm-7.125-174.699l4.74-18.626 26.253-27.459-6.92-5.858-27.792 29.25-5.505 22.254a370.984 370.984 0 0 0-12.432-.206c-29.27 0-53 3.316-53 7.406s23.73 7.406 53 7.406c29.271 0 53-3.316 53-7.406 0-3.011-12.87-5.604-31.344-6.76v-.001zm30.941-46.031c.66-.758-.342-2.696-2.237-4.329-1.897-1.632-3.97-2.341-4.63-1.583-.66.758.341 2.696 2.238 4.328 1.895 1.633 3.969 2.343 4.63 1.584h-.001zm-33.699 56.462s-1.026.23-4.046.242c-3.02.012-5.166-.02-6.02-.793-.23-.208-.356-.62-.354-.9.002-.53.382-.844.865-1.04l.458.713c-.2.068-.313.149-.313.235-.002.404 3.088.68 5.452.65 2.364-.029 5.221-.222 5.224-.62 0-.12-.216-.234-.592-.323l.455-.709c.613.19 1.147.555 1.146 1.187-.006 1.075-1.382 1.238-2.274 1.358h-.001zm167.042 57.961c-.257.375-.706 1.541-1.37 3.521a572.219 572.219 0 0 0-5.463 17.425c-1.101 3.682-2.234 7.45-3.39 11.281a930.505 930.505 0 0 0-3.346 11.292 1792.734 1792.734 0 0 0-4.993 17.489c-.567 2.012-.909 3.2-1.037 3.574-.31 1.188-.813 2.516-1.508 3.971a26.752 26.752 0 0 1-2.448 4.132c-.941 1.305-1.978 2.386-3.111 3.243-1.134.856-2.3 1.284-3.486 1.284-2.01 0-3.475-.674-4.384-2.012-.909-1.338-1.368-3.8-1.368-7.375v-1.562c0-.525.032-1.081.096-1.67.064-1.188.534-3.425 1.411-6.71.877-3.276 1.935-6.98 3.154-11.121a629.226 629.226 0 0 1 3.956-12.855c1.412-4.43 2.684-8.402 3.817-11.901a187.801 187.801 0 0 1-10.841 11.12c-3.892 3.693-7.891 7-11.965 9.943-4.084 2.944-8.2 5.352-12.349 7.203-4.148 1.863-8.137 2.794-11.964 2.794-4.395 0-8.18-.974-11.355-2.9-3.176-1.938-5.795-4.475-7.87-7.6-2.074-3.125-3.613-6.668-4.618-10.617-1.005-3.95-1.508-7.9-1.508-11.849v-1.455c0-.45.032-.889.096-1.338.374-7.15 1.4-14.492 3.058-22.016a179.077 179.077 0 0 1 6.554-22.455 207.848 207.848 0 0 1 9.377-21.845c3.55-7.118 7.41-13.84 11.59-20.165 4.181-6.325 8.618-12.159 13.333-17.489s9.548-9.91 14.51-13.742c4.96-3.832 9.975-6.829 15.032-8.991C290.608 84.081 295.622 83 300.583 83c5.72 0 11.248 1.563 16.584 4.688 5.335 3.125 10.328 8.198 14.98 15.198 1.068 1.563 1.742 3.147 2.02 4.752.278 1.606.428 3.115.428 4.528 0 3.35-.802 5.994-2.406 7.93-1.604 1.938-3.507 2.901-5.699 2.901-2.01 0-3.881-1.06-5.603-3.19-1.732-2.118-3.656-5.158-5.795-9.107-2.01-3.575-4.223-6.165-6.64-7.77-2.416-1.606-5.046-2.398-7.869-2.398-4.394 0-9.099 1.83-14.092 5.48-4.993 3.65-9.943 8.476-14.84 14.47s-9.602 12.844-14.092 20.56a214.285 214.285 0 0 0-11.922 23.687c-3.453 8.08-6.201 16.054-8.243 23.91-2.043 7.856-3.058 14.92-3.058 21.182 0 2.087.139 4.227.427 6.421.289 2.195.813 4.196 1.604 5.983.78 1.788 1.85 3.265 3.208 4.41 1.347 1.156 3.058 1.734 5.132 1.734 2.32 0 4.961-.781 7.912-2.344 2.95-1.563 6.02-3.607 9.184-6.144 3.176-2.536 6.362-5.405 9.57-8.605 3.207-3.2 6.19-6.443 8.949-9.718 2.758-3.275 5.218-6.422 7.345-9.44 2.139-3.019 3.743-5.64 4.801-7.878l8.768-26.254c1.069-2.826 2.47-4.838 4.19-6.037 1.733-1.188 3.508-1.787 5.325-1.787a8.2 8.2 0 0 1 2.641.45 6.45 6.45 0 0 1 2.353 1.401c.695.632 1.24 1.456 1.646 2.462.406 1.006.61 2.183.61 3.521 0 3.575-.31 6.925-.941 10.061a80.532 80.532 0 0 1-2.406 9.162 152.17 152.17 0 0 1-3.25 8.99 224.447 224.447 0 0 0-3.465 9.43h.001zm161.87 2.354a4.185 4.185 0 0 0-1.458.996 276.27 276.27 0 0 1-5.988 5.865 220.825 220.825 0 0 1-14.423 12.512c-2.48 1.98-4.865 3.736-7.164 5.255-2.288 1.531-4.427 2.762-6.405 3.693-1.988.942-3.635 1.402-4.95 1.402-1.07 0-1.796-.332-2.17-1.006-.375-.674-.567-1.573-.567-2.686 0-1.788.32-3.821.984-6.09.662-2.28 1.336-4.271 2.031-5.983 1.85-4.762 3.725-9.514 5.624-14.257 2.17-5.47 4.49-11.26 6.971-17.371 2.48-6.111 5.025-12.383 7.634-18.827 2.61-6.443 5.154-12.64 7.634-18.602a1695.132 1695.132 0 0 1 6.972-16.536c2.16-5.062 4.03-9.344 5.602-12.844a53.485 53.485 0 0 0 2.021-4.805c.535-1.488.802-2.911.802-4.25 0-2.825-.802-4.88-2.406-6.143s-3.378-1.894-5.324-1.894c-1.946 0-3.882.599-5.795 1.787-1.925 1.188-3.443 3.243-4.577 6.144l-28.547 72.074c-2.084 5.248-4.158 10.5-6.223 15.755a1323.013 1323.013 0 0 0-6.693 17.318c-1.217 3.086-2.265 6.472-3.153 10.147a72.33 72.33 0 0 1-2.354 1.872c-3.175 2.419-6.201 4.303-9.099 5.64-2.897 1.338-5.314 2.013-7.26 2.013-2.769 0-4.148-1.338-4.148-4.025 0-2.9.428-6.047 1.272-9.44.856-3.393 1.914-6.85 3.208-10.392a170.164 170.164 0 0 1 4.191-10.447 836.372 836.372 0 0 0 4.192-9.664 158.07 158.07 0 0 0 3.207-8.05c.856-2.343 1.272-4.195 1.272-5.533 0-2.376-.662-4.43-1.978-6.143-1.315-1.713-3.11-2.569-5.367-2.569-2.074 0-3.806.824-5.186 2.462-1.39 1.637-2.608 3.682-3.678 6.143a81.106 81.106 0 0 0-2.972 8.049c-.909 2.9-1.957 5.62-3.154 8.156-1.69 3.8-3.817 7.984-6.362 12.565a95.032 95.032 0 0 1-8.532 12.855c-3.144 3.981-6.565 7.32-10.275 9.996-3.71 2.687-7.602 4.025-11.686 4.025-1.444 0-2.481-.568-3.112-1.68-.63-1.125-.94-2.355-.94-3.693.128-3.2.662-6.497 1.603-9.89a95.605 95.605 0 0 1 3.39-9.997 121.776 121.776 0 0 1 4.287-9.493 644.674 644.674 0 0 1 4.384-8.552 597.849 597.849 0 0 0 3.624-7.043c1.048-2.055 1.722-3.703 2.032-4.977.192-.663.288-1.37.288-2.119 0-1.124-.256-2.108-.759-2.965a6.578 6.578 0 0 0-1.978-2.119 9.14 9.14 0 0 0-2.64-1.23 10.477 10.477 0 0 0-2.738-.386c-2.01 0-3.87.61-5.602 1.841-1.722 1.23-3.25 3.264-4.566 6.09-5.143 10.735-9.13 19.854-11.964 27.379-2.823 7.524-4.919 13.646-6.266 18.377-1.358 4.73-2.16 8.198-2.406 10.392-.245 2.194-.374 3.329-.374 3.404 0 3.2.439 5.865 1.315 7.984.877 2.13 2.043 3.821 3.486 5.084 1.443 1.263 3.122 2.152 5.036 2.676 1.914.525 3.913.781 5.987.781 4.587 0 8.832-.76 12.724-2.29 3.892-1.52 7.41-3.51 10.553-5.972 3.143-2.462 5.945-5.18 8.393-8.156 2.449-2.976 4.49-5.919 6.127-8.83-1.005 4.538-1.508 8.53-1.508 11.955 0 4.849.941 8.274 2.823 10.286 1.892 2.012 4.34 3.018 7.356 3.018 3.015 0 6.404-.835 10.179-2.515 3.763-1.68 7.602-3.896 11.494-6.647a90.813 90.813 0 0 0 3.307-2.452c.099.68.222 1.347.37 2.003.439 1.937 1.177 3.617 2.214 5.03 1.037 1.413 2.416 2.526 4.148 3.35 1.733.824 3.882 1.231 6.458 1.231 3.775 0 7.656-.888 11.644-2.676 3.988-1.798 8.008-4.195 12.06-7.213 4.053-3.019 8.116-6.497 12.2-10.447l.632-.612c-.66 1.53-1.326 3.058-2 4.583a992.047 992.047 0 0 1-10.126 22.241 1973.28 1973.28 0 0 0-10.371 22.402 134.092 134.092 0 0 1-1.647 4.195 125.397 125.397 0 0 0-1.742 4.463 42.016 42.016 0 0 0-1.412 4.635 19.669 19.669 0 0 0-.566 4.58c0 3.051.737 5.117 2.213 6.198 1.486 1.07 3.346 1.616 5.613 1.616 1.754 0 3.347-.385 4.758-1.167 1.422-.781 2.673-1.82 3.774-3.125 1.102-1.306 2.075-2.815 2.92-4.527a41.857 41.857 0 0 0 2.213-5.48c.192-.675.63-1.938 1.325-3.8.695-1.862 1.497-4.014 2.406-6.475.909-2.462 1.882-5.063 2.919-7.824 1.026-2.762 2.02-5.384 2.962-7.878.951-2.504 1.775-4.677 2.502-6.54.727-1.862 1.24-3.124 1.56-3.799.247-.524.674-1.466 1.273-2.847.599-1.391 1.272-2.943 2.031-4.698a246.307 246.307 0 0 1 2.492-5.587c.92-1.97 1.775-3.886 2.598-5.748a219.75 219.75 0 0 1 2.256-5.03c.695-1.488 1.23-2.644 1.604-3.468 1.25-2.612 2.78-5.459 4.565-8.552a117.48 117.48 0 0 1 5.934-9.215c2.17-3.061 4.49-5.994 6.971-8.83 2.481-2.837 5.026-5.352 7.635-7.546 2.598-2.194 5.239-3.939 7.912-5.244 2.673-1.306 5.26-1.96 7.773-1.96 1.443 0 2.48.258 3.111.782.62.514.941 1.22.941 2.12 0 1.498-.76 3.424-2.267 5.811s-3.41 5.01-5.699 7.878a450.238 450.238 0 0 1-7.495 9.108 235.86 235.86 0 0 0-7.634 9.494c-2.384 3.136-4.426 6.154-6.126 9.054-1.69 2.9-2.673 5.47-2.92 7.707-.058.314-.09.633-.095.952v.835c0 3.65 1.304 6.518 3.913 8.605 2.609 2.077 6.297 3.125 11.077 3.125 5.09 0 9.868-.963 14.327-2.9 4.459-1.937 9.024-4.667 13.707-8.21 4.683-3.542 9.655-7.77 14.937-12.682 5.271-4.913 11.27-10.35 17.995-16.312a12.481 12.481 0 0 0 3.817-5.03c.855-2.013 1.272-3.982 1.272-5.92 0-1.787-.342-3.296-1.037-4.527-.695-1.22-1.732-1.84-3.112-1.84-.694 0-1.422.181-2.17.556a21.14 21.14 0 0 0-2.448 1.456c-8.415 7.524-15.504 13.764-21.256 18.709-5.752 4.955-10.5 8.905-14.231 11.848-3.732 2.943-6.64 5.009-8.714 6.197-2.074 1.188-3.646 1.787-4.715 1.787-1.326 0-2.278-.267-2.834-.834-.556-.568-.844-1.285-.844-2.184.064-.663.898-1.948 2.501-3.853a857.46 857.46 0 0 1 5.935-6.925 378.048 378.048 0 0 0 7.59-9.055 132.203 132.203 0 0 0 7.539-10.221c2.32-3.5 4.255-6.978 5.795-10.446s2.31-6.722 2.31-9.783c0-2.312-.503-4.335-1.508-6.09a13.783 13.783 0 0 0-3.914-4.356c-1.603-1.156-3.421-2.023-5.463-2.622-2.042-.6-4.095-.9-6.17-.9-3.015 0-6.03.632-9.045 1.895-3.015 1.274-5.966 2.911-8.853 4.924a78.207 78.207 0 0 0-8.393 6.764c-2.705 2.504-5.218 5.009-7.538 7.546.182-.45.385-1.156.61-2.12.213-.963.416-1.99.609-3.071.182-1.081.342-2.109.47-3.072.129-.963.193-1.67.193-2.12 0-2.236-.567-3.927-1.7-5.083-1.134-1.156-2.951-1.734-5.464-1.734-1.625 0-3.154.867-4.565 2.622-1.412 1.745-2.684 3.81-3.817 6.197a77.705 77.705 0 0 0-3.016 7.267 371.762 371.762 0 0 1-2.074 5.705 198.52 198.52 0 0 1-2.861 9.28v-.001z" fill-rule="nonzero" fill="#D34A47"/></svg>