<svg width="640" height="384" viewBox="0 0 640 384" xmlns="http://www.w3.org/2000/svg"><title>HTML5 Boilerplate Logo</title><g fill="none" fill-rule="evenodd"><path d="M58.775 189.89H50.67v-16.728H35.482v16.728H27.35v-38.758h8.132v15.19H50.67v-15.19h8.105v38.758zm23.497 0H74.14v-31.918H63.727v-6.84h28.96v6.84H82.271v31.918zm31.577 0l-9.234-30.407h-.236c.332 6.186.499 10.313.499 12.38v18.027H97.61v-38.758h11.07l9.076 29.639h.158l9.627-29.639h11.07v38.758h-7.582v-18.345c0-.866.013-1.864.04-2.995.026-1.131.144-4.136.354-9.014h-.236l-9.89 30.354h-7.45zm33.439 0v-38.758h8.131v31.972h15.556v6.786h-23.687zm40.652-24.76c3.708 0 6.659 1.051 8.853 3.155 2.195 2.103 3.292 4.983 3.292 8.642 0 4.33-1.32 7.661-3.96 9.994-2.641 2.333-6.419 3.5-11.333 3.5-4.267 0-7.712-.699-10.335-2.095v-7.078c1.382.742 2.99 1.348 4.827 1.816 1.836.468 3.576.702 5.22.702 4.949 0 7.423-2.05 7.423-6.15 0-3.906-2.562-5.859-7.685-5.859-.927 0-1.95.093-3.07.279-1.119.185-2.028.384-2.728.596l-3.226-1.75 1.443-19.75h20.801v6.946H183.77l-.708 7.609.918-.186c1.067-.247 2.387-.371 3.961-.371zm91.154-13.998h11.935c5.439 0 9.387.783 11.844 2.347 2.457 1.564 3.685 4.051 3.685 7.462 0 2.315-.538 4.215-1.613 5.7-1.076 1.484-2.505 2.377-4.289 2.677v.266c2.43.547 4.184 1.572 5.26 3.075 1.075 1.502 1.613 3.499 1.613 5.991 0 3.535-1.264 6.292-3.79 8.271-2.528 1.98-5.96 2.97-10.297 2.97h-14.348v-38.759zm8.132 15.35h4.721c2.204 0 3.8-.345 4.787-1.034.988-.69 1.482-1.83 1.482-3.42 0-1.484-.537-2.55-1.613-3.194-1.075-.645-2.776-.968-5.102-.968h-4.275v8.616zm0 6.521v10.1h5.298c2.239 0 3.891-.432 4.958-1.298 1.067-.866 1.6-2.192 1.6-3.977 0-3.216-2.273-4.825-6.82-4.825h-5.036zm61.795-2.545c0 6.416-1.574 11.347-4.722 14.793-3.148 3.446-7.66 5.17-13.535 5.17-5.876 0-10.388-1.724-13.536-5.17-3.148-3.446-4.722-8.395-4.722-14.846 0-6.45 1.579-11.377 4.735-14.78 3.157-3.401 7.682-5.102 13.575-5.102 5.893 0 10.4 1.714 13.522 5.143 3.122 3.428 4.683 8.36 4.683 14.792zm-27.99 0c0 4.33.814 7.591 2.44 9.783 1.627 2.191 4.057 3.287 7.293 3.287 6.487 0 9.731-4.357 9.731-13.07 0-8.73-3.226-13.096-9.679-13.096-3.235 0-5.675 1.1-7.319 3.3-1.643 2.201-2.465 5.466-2.465 9.796zm34.961 19.432v-38.758h8.132v38.758h-8.132zm16.808 0v-38.758h8.132v31.972h15.555v6.786H372.8zm51.46 0h-22.087v-38.758h22.087v6.734h-13.955v8.51h12.985v6.733h-12.985v9.995h13.955v6.786zm15.156-21.552h2.623c2.57 0 4.468-.433 5.692-1.3 1.224-.865 1.836-2.226 1.836-4.082 0-1.838-.625-3.146-1.875-3.924-1.25-.777-3.187-1.166-5.81-1.166h-2.466v10.472zm0 6.68v14.872h-8.132v-38.758h11.175c5.21 0 9.067.96 11.568 2.877 2.5 1.917 3.75 4.83 3.75 8.735 0 2.28-.62 4.308-1.862 6.084-1.241 1.776-2.999 3.168-5.272 4.175 5.77 8.713 9.53 14.342 11.28 16.887h-9.024l-9.155-14.872h-4.328zm34.488-5.647h2.675c2.501 0 4.372-.499 5.614-1.497 1.242-.999 1.862-2.453 1.862-4.361 0-1.927-.52-3.35-1.56-4.268-1.04-.92-2.672-1.379-4.893-1.379h-3.698v11.505zm18.362-6.15c0 4.171-1.29 7.361-3.87 9.57-2.579 2.21-6.247 3.314-11.003 3.314h-3.49v13.785h-8.13v-38.758h12.25c4.65 0 8.188 1.012 10.61 3.036 2.422 2.023 3.633 5.041 3.633 9.053zm6.263 26.67v-38.759h8.132v31.972h15.555v6.786h-23.687zm52.85 0l-2.78-9.226h-13.982l-2.78 9.225h-8.762l13.536-38.917h9.942l13.587 38.917h-8.76zm-4.721-16.119c-2.571-8.36-4.018-13.087-4.342-14.183a40.374 40.374 0 0 1-.695-2.598c-.577 2.262-2.23 7.856-4.958 16.781h9.995zm28.376 16.118h-8.132v-31.918h-10.414v-6.84h28.96v6.84h-10.414v31.918zm37.426 0h-22.087v-38.758h22.087v6.734h-13.955v8.51h12.984v6.733h-12.984v9.995h13.955v6.786z" fill="#252629"/><path fill="#FF9505" d="M238.383 144.122l-7.36 20.088h-18.856l15.848 11.998-7.629 20.252 17.997-13.628 17.997 13.628-7.629-20.252L264.6 164.21h-18.91z"/><path d="M100.766 235h-3.633v-14.11H92.48v-3.023h12.938v3.024h-4.652V235zm17.574 0h-3.574v-7.652c0-1.891-.703-2.836-2.11-2.836-1 0-1.722.34-2.168 1.02-.445.679-.668 1.78-.668 3.304V235h-3.574v-18.234h3.574v3.714c0 .29-.027.97-.082 2.04l-.082 1.054h.188c.797-1.281 2.062-1.922 3.797-1.922 1.539 0 2.707.414 3.504 1.243.796.828 1.195 2.015 1.195 3.562V235zm7.578-10.805c-.758 0-1.351.24-1.781.721-.43.48-.676 1.162-.738 2.045h5.015c-.015-.883-.246-1.565-.691-2.045-.446-.48-1.047-.72-1.805-.72zm.504 11.04c-2.11 0-3.758-.583-4.945-1.747-1.188-1.164-1.782-2.812-1.782-4.945 0-2.195.55-3.893 1.647-5.092 1.098-1.2 2.615-1.799 4.553-1.799 1.851 0 3.293.528 4.324 1.582 1.031 1.055 1.547 2.512 1.547 4.371v1.735h-8.45c.04 1.015.34 1.808.903 2.379.562.57 1.351.855 2.367.855.79 0 1.535-.082 2.238-.246a11.2 11.2 0 0 0 2.203-.785v2.766a8.393 8.393 0 0 1-2.003.697c-.711.152-1.579.228-2.602.228zm22.2-.235l-1.008-4.582-1.36-5.79h-.082L143.782 235h-3.844l-3.727-13.102h3.563l1.511 5.801c.243 1.04.489 2.473.739 4.301h.07c.031-.594.168-1.535.41-2.824l.188-.996 1.617-6.282h3.937l1.536 6.282c.03.172.08.425.146.761.066.336.13.694.193 1.073s.12.75.17 1.113c.051.363.08.654.088.873h.07c.07-.563.196-1.334.376-2.314s.308-1.643.386-1.987l1.57-5.8h3.504L152.512 235h-3.89zm13.671-10.805c-.757 0-1.351.24-1.78.721-.43.48-.677 1.162-.74 2.045h5.016c-.015-.883-.246-1.565-.691-2.045-.445-.48-1.047-.72-1.805-.72zm.504 11.04c-2.11 0-3.758-.583-4.945-1.747-1.188-1.164-1.781-2.812-1.781-4.945 0-2.195.548-3.893 1.646-5.092 1.098-1.2 2.615-1.799 4.553-1.799 1.851 0 3.293.528 4.324 1.582 1.031 1.055 1.547 2.512 1.547 4.371v1.735h-8.45c.04 1.015.34 1.808.903 2.379.563.57 1.352.855 2.367.855.79 0 1.535-.082 2.239-.246a11.2 11.2 0 0 0 2.203-.785v2.766a8.393 8.393 0 0 1-2.004.697c-.711.152-1.578.228-2.602.228zm14.012-13.583c1.547 0 2.758.604 3.633 1.81.875 1.208 1.312 2.862 1.312 4.964 0 2.164-.45 3.84-1.353 5.027-.903 1.188-2.131 1.781-3.686 1.781-1.539 0-2.746-.558-3.62-1.675h-.247L172.25 235h-2.73v-18.234h3.574v4.242c0 .539-.047 1.402-.14 2.59h.14c.836-1.297 2.074-1.946 3.715-1.946zm-1.148 2.86c-.883 0-1.528.271-1.934.814-.406.543-.617 1.44-.633 2.69v.386c0 1.407.21 2.414.627 3.024.418.61 1.08.914 1.986.914.735 0 1.319-.338 1.752-1.014.434-.676.65-1.658.65-2.947 0-1.29-.218-2.256-.655-2.9-.438-.645-1.036-.967-1.793-.967zm10.168-6.645l.164.258c-.39 1.54-1.078 3.41-2.063 5.613h-2.566c.539-2.312.93-4.27 1.172-5.87h3.293zm9.218 13.242c0 1.344-.466 2.368-1.4 3.07-.934.704-2.33 1.055-4.19 1.055-.953 0-1.765-.064-2.437-.193a9.22 9.22 0 0 1-1.887-.568v-2.953a12.46 12.46 0 0 0 2.245.785c.832.21 1.564.316 2.197.316 1.297 0 1.945-.375 1.945-1.125 0-.281-.086-.51-.258-.685-.172-.176-.468-.375-.89-.598a22.494 22.494 0 0 0-1.688-.78c-1.008-.421-1.748-.812-2.22-1.171-.473-.36-.817-.772-1.032-1.237-.215-.464-.322-1.037-.322-1.716 0-1.164.451-2.065 1.353-2.702.903-.636 2.182-.955 3.838-.955 1.578 0 3.114.344 4.606 1.032l-1.078 2.578a19.832 19.832 0 0 0-1.84-.692 5.777 5.777 0 0 0-1.746-.27c-1.055 0-1.582.286-1.582.856 0 .32.17.598.51.832.34.235 1.083.582 2.232 1.043 1.023.414 1.773.801 2.25 1.16.476.36.828.774 1.055 1.243.226.468.34 1.027.34 1.675zm17.7 3.891h-3.574v-7.652c0-.946-.159-1.655-.475-2.127-.316-.473-.814-.71-1.494-.71-.914 0-1.578.337-1.992 1.009-.414.671-.621 1.777-.621 3.316V235h-3.575v-13.102h2.73l.481 1.676h.2c.351-.601.859-1.072 1.523-1.412.664-.34 1.426-.51 2.285-.51 1.961 0 3.29.641 3.984 1.922h.317c.351-.61.869-1.082 1.553-1.418.683-.336 1.455-.504 2.314-.504 1.484 0 2.607.381 3.37 1.143.76.762 1.142 1.982 1.142 3.662V235h-3.586v-7.652c0-.946-.158-1.655-.475-2.127-.316-.473-.814-.71-1.494-.71-.875 0-1.53.313-1.963.938-.433.625-.65 1.617-.65 2.977V235zm13.156-6.574c0 1.297.213 2.277.639 2.941.426.664 1.119.996 2.08.996.953 0 1.639-.33 2.057-.99.417-.66.626-1.643.626-2.947 0-1.297-.21-2.27-.632-2.918-.422-.649-1.114-.973-2.075-.973-.953 0-1.64.322-2.062.967-.422.644-.633 1.62-.633 2.924zm9.059 0c0 2.133-.563 3.8-1.688 5.004-1.125 1.203-2.691 1.804-4.699 1.804-1.258 0-2.367-.275-3.328-.826-.961-.55-1.7-1.342-2.215-2.373-.516-1.031-.773-2.234-.773-3.61 0-2.14.558-3.804 1.675-4.991 1.118-1.188 2.688-1.782 4.711-1.782 1.258 0 2.368.274 3.328.82.961.548 1.7 1.333 2.215 2.356.516 1.024.774 2.223.774 3.598zm10.566 2.683c0 1.344-.467 2.368-1.4 3.07-.934.704-2.33 1.055-4.19 1.055-.953 0-1.765-.064-2.437-.193a9.22 9.22 0 0 1-1.887-.568v-2.953a12.46 12.46 0 0 0 2.244.785c.832.21 1.565.316 2.198.316 1.296 0 1.945-.375 1.945-1.125 0-.281-.086-.51-.258-.685-.172-.176-.469-.375-.89-.598a22.494 22.494 0 0 0-1.688-.78c-1.008-.421-1.748-.812-2.22-1.171-.473-.36-.817-.772-1.032-1.237-.215-.464-.322-1.037-.322-1.716 0-1.164.45-2.065 1.353-2.702.903-.636 2.182-.955 3.838-.955 1.578 0 3.113.344 4.606 1.032l-1.079 2.578a19.832 19.832 0 0 0-1.84-.692 5.777 5.777 0 0 0-1.745-.27c-1.055 0-1.583.286-1.583.856 0 .32.17.598.51.832.34.235 1.084.582 2.233 1.043 1.023.414 1.773.801 2.25 1.16.476.36.828.774 1.054 1.243.227.468.34 1.027.34 1.675zm6.782 1.278c.625 0 1.375-.137 2.25-.41v2.66c-.891.398-1.985.597-3.282.597-1.43 0-2.47-.361-3.123-1.084-.652-.722-.978-1.806-.978-3.252v-6.316h-1.711v-1.512l1.969-1.195 1.03-2.766h2.286v2.79h3.668v2.683h-3.668v6.316c0 .508.143.883.428 1.125.285.243.662.364 1.13.364zm15.273 2.847c-1.539 0-2.746-.558-3.621-1.675h-.187c.125 1.093.187 1.726.187 1.898v5.309h-3.574v-18.868h2.906l.504 1.7h.164c.836-1.297 2.074-1.946 3.715-1.946 1.547 0 2.758.598 3.633 1.793.875 1.196 1.312 2.856 1.312 4.98 0 1.4-.205 2.614-.615 3.645-.41 1.032-.994 1.817-1.752 2.356-.758.539-1.648.808-2.672.808zm-1.055-10.722c-.882 0-1.527.271-1.933.814-.406.543-.617 1.44-.633 2.69v.386c0 1.407.209 2.414.627 3.024.418.61 1.08.914 1.986.914 1.602 0 2.403-1.32 2.403-3.961 0-1.29-.198-2.256-.592-2.9-.395-.645-1.014-.967-1.858-.967zm10.368 3.914c0 1.297.213 2.277.638 2.941.426.664 1.12.996 2.08.996.954 0 1.64-.33 2.057-.99.418-.66.627-1.643.627-2.947 0-1.297-.21-2.27-.633-2.918-.422-.649-1.113-.973-2.074-.973-.953 0-1.64.322-2.063.967-.421.644-.632 1.62-.632 2.924zm9.058 0c0 2.133-.562 3.8-1.687 5.004-1.125 1.203-2.692 1.804-4.7 1.804-1.257 0-2.367-.275-3.328-.826-.96-.55-1.699-1.342-2.214-2.373-.516-1.031-.774-2.234-.774-3.61 0-2.14.559-3.804 1.676-4.991 1.117-1.188 2.687-1.782 4.71-1.782 1.259 0 2.368.274 3.329.82.96.548 1.7 1.333 2.215 2.356.515 1.024.773 2.223.773 3.598zm8.621 6.808c-1.539 0-2.746-.558-3.62-1.675h-.188c.125 1.093.187 1.726.187 1.898v5.309h-3.574v-18.868h2.906l.504 1.7h.164c.836-1.297 2.075-1.946 3.715-1.946 1.547 0 2.758.598 3.633 1.793.875 1.196 1.313 2.856 1.313 4.98 0 1.4-.206 2.614-.616 3.645-.41 1.032-.994 1.817-1.752 2.356-.758.539-1.648.808-2.672.808zm-1.054-10.722c-.883 0-1.528.271-1.934.814-.406.543-.617 1.44-.633 2.69v.386c0 1.407.21 2.414.627 3.024.418.61 1.08.914 1.987.914 1.601 0 2.402-1.32 2.402-3.961 0-1.29-.197-2.256-.592-2.9-.394-.645-1.013-.967-1.857-.967zM310.32 235l-.48-1.676h-.187c-.383.61-.926 1.08-1.63 1.412-.702.332-1.503.498-2.402.498-1.539 0-2.699-.412-3.48-1.236-.781-.824-1.172-2.01-1.172-3.557v-8.543h3.574v7.653c0 .945.168 1.654.504 2.127.336.472.871.709 1.606.709 1 0 1.722-.334 2.168-1.002.445-.668.668-1.776.668-3.322v-6.165h3.574V235h-2.742zm8.54 0h-3.574v-18.234h3.574V235zm10.543 0l-.692-1.781h-.093c-.602.758-1.221 1.283-1.858 1.576-.637.293-1.467.44-2.49.44-1.258 0-2.248-.36-2.97-1.079-.723-.719-1.085-1.742-1.085-3.07 0-1.39.487-2.416 1.46-3.076.972-.66 2.439-1.026 4.4-1.096l2.273-.07v-.574c0-1.329-.68-1.993-2.039-1.993-1.047 0-2.277.317-3.691.95l-1.184-2.415c1.508-.789 3.18-1.183 5.016-1.183 1.757 0 3.105.383 4.043 1.148.937.766 1.406 1.93 1.406 3.493V235h-2.496zm-1.055-6.07l-1.383.047c-1.039.03-1.812.218-2.32.562-.508.344-.762.867-.762 1.57 0 1.008.578 1.512 1.735 1.512.828 0 1.49-.238 1.986-.715.496-.476.744-1.11.744-1.898v-1.078zm13.016-7.278c.484 0 .887.036 1.207.106l-.27 3.351a4.095 4.095 0 0 0-1.054-.117c-1.141 0-2.03.293-2.666.88-.637.585-.955 1.405-.955 2.46V235h-3.575v-13.102h2.707l.528 2.204h.175a4.925 4.925 0 0 1 1.647-1.776 4.06 4.06 0 0 1 2.256-.674zm14.008 2.93h-3.094V235h-3.574v-10.418h-1.969v-1.723l1.969-.96v-.962c0-1.492.367-2.582 1.101-3.269.735-.688 1.91-1.031 3.528-1.031 1.234 0 2.332.183 3.293.55l-.914 2.625c-.72-.226-1.383-.34-1.993-.34-.507 0-.875.151-1.101.452-.227.3-.34.685-.34 1.154v.82h3.094v2.684zm7.836-2.93c.484 0 .886.036 1.207.106l-.27 3.351a4.095 4.095 0 0 0-1.054-.117c-1.141 0-2.03.293-2.666.88-.637.585-.956 1.405-.956 2.46V235h-3.574v-13.102h2.707l.528 2.204h.175a4.925 4.925 0 0 1 1.647-1.776 4.06 4.06 0 0 1 2.256-.674zm4.426 6.774c0 1.297.212 2.277.638 2.941.426.664 1.12.996 2.08.996.953 0 1.639-.33 2.057-.99.418-.66.627-1.643.627-2.947 0-1.297-.211-2.27-.633-2.918-.422-.649-1.113-.973-2.074-.973-.953 0-1.64.322-2.063.967-.421.644-.632 1.62-.632 2.924zm9.058 0c0 2.133-.562 3.8-1.687 5.004-1.125 1.203-2.692 1.804-4.7 1.804-1.257 0-2.367-.275-3.328-.826-.96-.55-1.699-1.342-2.214-2.373-.516-1.031-.774-2.234-.774-3.61 0-2.14.559-3.804 1.676-4.991 1.117-1.188 2.687-1.782 4.71-1.782 1.259 0 2.368.274 3.329.82.96.548 1.7 1.333 2.215 2.356.515 1.024.773 2.223.773 3.598zm13.52 6.574h-3.574v-7.652c0-.946-.168-1.655-.504-2.127-.336-.473-.871-.71-1.606-.71-1 0-1.722.335-2.168 1.003-.445.668-.668 1.775-.668 3.322V235h-3.574v-13.102h2.73l.481 1.676h.2a3.777 3.777 0 0 1 1.646-1.435c.699-.325 1.494-.487 2.384-.487 1.524 0 2.68.412 3.47 1.237.788.824 1.183 2.013 1.183 3.568V235zm7.672-2.613c.625 0 1.375-.137 2.25-.41v2.66c-.89.398-1.985.597-3.281.597-1.43 0-2.471-.361-3.124-1.084-.652-.722-.978-1.806-.978-3.252v-6.316h-1.711v-1.512l1.969-1.195 1.031-2.766h2.285v2.79h3.668v2.683h-3.668v6.316c0 .508.143.883.428 1.125.285.243.662.364 1.13.364zm2.21-2.356v-2.93h6.294v2.93h-6.293zm12.782-5.836c-.758 0-1.351.24-1.781.721-.43.48-.676 1.162-.738 2.045h5.015c-.015-.883-.246-1.565-.691-2.045-.446-.48-1.047-.72-1.805-.72zm.504 11.04c-2.11 0-3.758-.583-4.945-1.747-1.188-1.164-1.782-2.812-1.782-4.945 0-2.195.55-3.893 1.647-5.092 1.098-1.2 2.615-1.799 4.553-1.799 1.851 0 3.293.528 4.324 1.582 1.031 1.055 1.547 2.512 1.547 4.371v1.735h-8.45c.04 1.015.34 1.808.903 2.379.562.57 1.351.855 2.367.855.79 0 1.535-.082 2.238-.246a11.2 11.2 0 0 0 2.203-.785v2.766a8.393 8.393 0 0 1-2.003.697c-.711.152-1.579.228-2.602.228zm18.816-.235h-3.574v-7.652c0-.946-.168-1.655-.504-2.127-.336-.473-.87-.71-1.605-.71-1 0-1.723.335-2.168 1.003-.445.668-.668 1.775-.668 3.322V235h-3.574v-13.102h2.73l.48 1.676h.2a3.777 3.777 0 0 1 1.646-1.435c.7-.325 1.494-.487 2.385-.487 1.524 0 2.68.412 3.469 1.237.789.824 1.183 2.013 1.183 3.568V235zm6.301.234c-1.539 0-2.748-.597-3.627-1.793-.879-1.195-1.318-2.851-1.318-4.968 0-2.149.447-3.823 1.342-5.022.894-1.2 2.127-1.799 3.697-1.799 1.649 0 2.906.641 3.774 1.922h.117c-.18-.976-.27-1.847-.27-2.613v-4.195h3.586V235h-2.742l-.691-1.7h-.153c-.812 1.29-2.05 1.934-3.715 1.934zm1.254-2.847c.914 0 1.584-.266 2.01-.797.426-.531.658-1.434.697-2.707v-.387c0-1.406-.217-2.414-.65-3.023-.434-.61-1.139-.914-2.115-.914-.797 0-1.416.337-1.858 1.013-.441.676-.662 1.658-.662 2.948 0 1.289.223 2.255.668 2.9.445.644 1.082.967 1.91.967zm18.485 0c.625 0 1.375-.137 2.25-.41v2.66c-.89.398-1.985.597-3.282.597-1.43 0-2.47-.361-3.123-1.084-.652-.722-.978-1.806-.978-3.252v-6.316h-1.711v-1.512l1.969-1.195 1.031-2.766h2.285v2.79h3.668v2.683h-3.668v6.316c0 .508.143.883.428 1.125.285.243.662.364 1.13.364zm8.797-8.192c-.758 0-1.352.24-1.782.721-.43.48-.675 1.162-.738 2.045h5.016c-.016-.883-.246-1.565-.692-2.045-.445-.48-1.046-.72-1.804-.72zm.504 11.04c-2.11 0-3.758-.583-4.946-1.747-1.187-1.164-1.781-2.812-1.781-4.945 0-2.195.549-3.893 1.647-5.092 1.097-1.2 2.615-1.799 4.552-1.799 1.852 0 3.293.528 4.324 1.582 1.032 1.055 1.547 2.512 1.547 4.371v1.735h-8.449c.04 1.015.34 1.808.902 2.379.563.57 1.352.855 2.368.855.789 0 1.535-.082 2.238-.246a11.2 11.2 0 0 0 2.203-.785v2.766a8.393 8.393 0 0 1-2.004.697c-.71.152-1.578.228-2.601.228zM485.99 235h-3.574v-7.652c0-.946-.159-1.655-.475-2.127-.316-.473-.814-.71-1.494-.71-.914 0-1.578.337-1.992 1.009-.414.671-.621 1.777-.621 3.316V235h-3.575v-13.102h2.73l.481 1.676h.2c.351-.601.859-1.072 1.523-1.412.664-.34 1.426-.51 2.285-.51 1.961 0 3.29.641 3.984 1.922h.317c.351-.61.869-1.082 1.553-1.418.683-.336 1.455-.504 2.314-.504 1.484 0 2.607.381 3.37 1.143.76.762 1.142 1.982 1.142 3.662V235h-3.586v-7.652c0-.946-.158-1.655-.475-2.127-.316-.473-.814-.71-1.494-.71-.875 0-1.53.313-1.963.938-.433.625-.65 1.617-.65 2.977V235zm17.504.234c-1.54 0-2.746-.558-3.621-1.675h-.188c.125 1.093.188 1.726.188 1.898v5.309h-3.575v-18.868h2.907l.504 1.7h.164c.836-1.297 2.074-1.946 3.715-1.946 1.546 0 2.757.598 3.632 1.793.875 1.196 1.313 2.856 1.313 4.98 0 1.4-.205 2.614-.615 3.645-.41 1.032-.995 1.817-1.752 2.356-.758.539-1.649.808-2.672.808zm-1.055-10.722c-.883 0-1.527.271-1.934.814-.406.543-.617 1.44-.632 2.69v.386c0 1.407.209 2.414.627 3.024.418.61 1.08.914 1.986.914 1.602 0 2.402-1.32 2.402-3.961 0-1.29-.197-2.256-.591-2.9-.395-.645-1.014-.967-1.858-.967zM513.534 235h-3.574v-18.234h3.574V235zm10.543 0l-.691-1.781h-.094c-.602.758-1.22 1.283-1.858 1.576-.636.293-1.466.44-2.49.44-1.258 0-2.248-.36-2.97-1.079-.723-.719-1.085-1.742-1.085-3.07 0-1.39.487-2.416 1.46-3.076.972-.66 2.439-1.026 4.4-1.096l2.273-.07v-.574c0-1.329-.68-1.993-2.039-1.993-1.047 0-2.277.317-3.691.95l-1.184-2.415c1.508-.789 3.18-1.183 5.016-1.183 1.758 0 3.105.383 4.043 1.148.937.766 1.406 1.93 1.406 3.493V235h-2.496zm-1.055-6.07l-1.383.047c-1.039.03-1.812.218-2.32.562-.508.344-.762.867-.762 1.57 0 1.008.579 1.512 1.735 1.512.828 0 1.49-.238 1.986-.715.496-.476.744-1.11.744-1.898v-1.078zm11.223 3.457c.625 0 1.375-.137 2.25-.41v2.66c-.89.398-1.984.597-3.281.597-1.43 0-2.471-.361-3.123-1.084-.653-.722-.979-1.806-.979-3.252v-6.316h-1.71v-1.512l1.968-1.195 1.031-2.766h2.285v2.79h3.668v2.683h-3.668v6.316c0 .508.143.883.428 1.125.285.243.662.364 1.131.364zm8.797-8.192c-.758 0-1.352.24-1.781.721-.43.48-.676 1.162-.739 2.045h5.016c-.016-.883-.246-1.565-.691-2.045-.446-.48-1.047-.72-1.805-.72zm.504 11.04c-2.11 0-3.758-.583-4.945-1.747-1.188-1.164-1.782-2.812-1.782-4.945 0-2.195.55-3.893 1.647-5.092 1.097-1.2 2.615-1.799 4.552-1.799 1.852 0 3.293.528 4.325 1.582 1.031 1.055 1.547 2.512 1.547 4.371v1.735h-8.45c.04 1.015.34 1.808.903 2.379.562.57 1.351.855 2.367.855.789 0 1.535-.082 2.238-.246a11.2 11.2 0 0 0 2.203-.785v2.766a8.393 8.393 0 0 1-2.004.697c-.71.152-1.578.228-2.601.228z" fill="#252629"/></g></svg>