<svg width="640" height="384" viewBox="0 0 640 384" xmlns="http://www.w3.org/2000/svg"><title>invision-logo</title><g fill-rule="nonzero" fill="#F36"><path d="M304.11 241.325h16.908V167.54h-16.907v73.785h-.001zm61.761-43.6c-8.665-2.8-16.631-5.033-16.631-10.343v-.28c0-4.332 3.773-7.407 10.34-7.407 3.203 0 6.789.735 10.494 2.035l-.002-.009s.036.018.107.05c.318.113.642.24.965.361 2.675.846 9.888 1.976 15.967-7.465-7.826-5.174-17.884-8.389-27.111-8.389-14.67 0-26.267 8.524-26.267 22.502v.28c0 14.113 12.156 18.585 23.054 21.66 8.665 2.655 16.491 4.61 16.491 10.34v.277c0 4.893-4.193 7.968-11.459 7.968-4.831 0-10.12-1.275-15.393-3.76-1.517-.64-9.409-3.34-16.157 6.259 9.194 7.18 20.712 10.918 31.131 10.918 15.366 0 27.386-7.683 27.386-23.2v-.278c0-13.274-12.156-18.167-22.915-21.52v.001zm-107.865 24.033l-19.84-54.218H220l30.322 74.341h15.23l30.181-74.341h-17.745l-19.982 54.218zM467.309 166c-22.636 0-39.405 17.466-39.405 38.71 0 21.1 16.627 38.29 39.125 38.29 22.778 0 39.545-17.469 39.545-38.57 0-21.24-16.631-38.43-39.265-38.43zm0 62.329c-13.137 0-22.498-10.762-22.498-23.899 0-12.994 8.663-23.618 22.218-23.618 13.272 0 22.635 10.76 22.635 23.898 0 12.997-8.664 23.619-22.355 23.619zM556.731 166c-11.46 0-18.305 6.01-23.056 12.996V167.54h-16.906v73.785h16.906v-41.647c0-11.46 6.847-18.305 16.63-18.305 10.061 0 15.788 6.566 15.788 18.025v41.928H583v-46.957C583 177.18 573.358 166 556.73 166h.001zM399.96 241.325h16.91V167.54h-16.91v73.785z"/><path d="M234 120.045c0-8.861-7.184-16.045-16.045-16.045H73.045C64.184 104 57 111.184 57 120.045v144.91C57 273.816 64.184 281 73.045 281h144.91c8.861 0 16.045-7.184 16.045-16.045v-144.91zm-118.021 18.506c5.884 0 10.813 4.61 10.813 10.65 0 6.045-4.929 10.657-10.813 10.657s-10.812-4.612-10.812-10.657c0-6.04 4.928-10.65 10.812-10.65zm72.338 101.92c-10.972 0-16.218-6.515-16.218-15.423 0-2.541.316-5.247 1.112-7.95l5.248-18.762c.635-2.068.795-3.975.795-5.725 0-6.04-3.657-9.699-9.54-9.699-7.475 0-12.404 5.364-14.947 15.7l-10.177 40.82h-17.808l3.196-12.828c-5.235 8.599-12.504 13.925-21.472 13.925-10.813 0-15.902-6.229-15.902-15.612 0-2.381.32-5.3.955-8.004l8.109-33.129H89.107l3.816-14.08h30.211l-11.926 47.31c-.796 3.022-1.113 5.53-1.113 7.276 0 3.025 1.489 3.91 3.817 4.435 1.418.317 12.717.096 18.87-13.58l7.833-31.36h-12.72l3.816-14.08h27.19l-3.498 15.985c4.77-8.906 14.31-17.367 23.691-17.367 10.018 0 18.287 7.136 18.287 20.81 0 3.497-.477 7.304-1.75 11.596l-5.089 18.28c-.475 1.912-.795 3.5-.795 4.931 0 3.179 1.273 4.769 3.659 4.769 2.385 0 5.406-1.754 8.904-11.448l6.996 2.701c-4.134 14.47-11.608 20.509-20.99 20.509h.001z"/></g></svg>