<svg width="640" height="384" viewBox="0 0 640 384" xmlns="http://www.w3.org/2000/svg" xmlns:xlink="http://www.w3.org/1999/xlink"><title>less-logo</title><defs><linearGradient x1="50%" y1="0%" x2="50%" y2="100%" id="a"><stop stop-color="#2E4F82" offset="0%"/><stop stop-color="#182E4D" offset="100%"/></linearGradient><path id="b" d="M.12.992H512V220H.12"/><path id="d" d="M.12.992H512V220H.12"/></defs><g fill="none" fill-rule="evenodd"><path d="M544.472 259.476c0 23.128-19.376 42.05-43.058 42.05H139.5c-23.682 0-43.058-18.922-43.058-42.05V125.562c0-23.126 19.376-42.05 43.058-42.05h361.914c23.682 0 43.058 18.924 43.058 42.05v133.914" fill="url(#a)" fill-rule="nonzero"/><path d="M64.12 82.992H576V302H64.12"/><g transform="translate(64 82)"><mask id="c" fill="#fff"><use xlink:href="#b"/></mask><path d="M490.142 80.86c0-16.394 2.522-26.062 2.522-43.716 0-27.324-10.09-36.152-32.368-36.152h-16.394v19.336h5.044c11.35 0 13.872 3.784 13.872 17.656 0 13.03-1.262 26.062-1.262 41.196 0 19.336 6.306 26.902 18.916 29.844v1.262c-12.61 2.942-18.916 10.51-18.916 29.846 0 15.132 1.262 27.324 1.262 41.196 0 14.292-2.942 18.074-13.872 18.074v.42h-5.044V220h16.394c22.278 0 32.368-8.828 32.368-36.15 0-18.076-2.522-27.324-2.522-43.718 0-8.828 5.464-18.076 21.858-18.916v-21.86c-16.394-.42-21.858-9.668-21.858-18.496zm-186.22 25.642c-13.032-5.044-24.802-7.986-24.802-16.394 0-6.304 5.044-10.088 14.292-10.088 9.248 0 17.656 3.784 26.904 10.51l16.814-22.28c-10.51-7.986-24.802-16.394-44.138-16.394-28.584 0-47.922 16.394-47.922 39.514 0 20.598 18.076 31.106 33.21 36.992 13.03 5.044 25.642 9.248 25.642 17.654 0 6.306-5.046 10.51-16.394 10.51-10.51 0-21.018-4.204-32.368-13.032l-16.394 24.382c12.61 10.508 31.946 17.654 47.92 17.654 33.63 0 51.704-17.654 51.704-40.774s-18.074-32.788-34.468-38.254zm101.726 0c-12.61-5.044-24.38-7.986-24.38-16.394 0-6.304 5.044-10.088 14.292-10.088 9.248 0 17.656 3.784 26.904 10.51l16.814-22.28c-10.51-7.986-24.802-16.394-44.138-16.394-28.586 0-47.922 16.394-47.922 39.514 0 20.598 18.076 31.106 33.208 36.992 13.032 5.044 25.642 9.248 25.642 17.654 0 6.306-5.044 10.51-16.394 10.51-10.508 0-21.018-4.204-32.366-13.032l-16.816 24.382c12.612 10.508 31.948 17.654 47.922 17.654 33.628 0 51.704-17.654 51.704-40.774s-18.076-32.788-34.47-38.254zM155.954 104.4c2.522-16.814 12.61-24.8 24.38-24.8 15.134 0 21.02 10.508 21.02 24.8h-45.4zm77.346 7.568c.42-34.05-18.076-60.532-53.386-60.532-30.686 0-60.11 25.642-59.27 65.996 0 41.616 27.324 65.996 63.474 65.996 15.134 0 31.948-5.464 44.978-14.292l-12.61-22.278c-9.248 5.464-18.076 7.986-27.324 7.986-16.814 0-29.846-7.986-33.208-27.324h76.086c.42-2.942 1.26-8.826 1.26-15.552z" fill="#FAF9F8" fill-rule="nonzero" mask="url(#c)"/></g><g transform="translate(64 82)"><mask id="e" fill="#fff"><use xlink:href="#d"/></mask><path d="M118.542 154.004c-2.942 0-6.726-2.522-6.726-10.51V.992H52.124c-22.698 0-32.788 8.828-32.788 36.152 0 18.074 2.522 28.164 2.522 43.716 0 8.828-5.464 18.076-21.858 18.916v21.86c16.394.42 21.858 9.668 21.858 18.496 0 15.554-2.522 24.8-2.522 42.876 0 27.324 10.09 36.152 32.368 36.152h16.394v-19.338h-5.044c-10.508 0-13.872-4.202-13.872-18.074 0-13.872 1.262-25.642 1.262-41.196 0-19.336-6.306-26.904-18.918-29.846v-1.26c12.612-2.944 18.918-10.51 18.918-29.846 0-15.134-1.262-27.324-1.262-41.196 0-13.872 2.942-17.654 13.872-17.654h11.35v120.642c0 25.642 8.828 42.458 34.47 42.458 7.986 0 14.292-1.262 18.916-2.944l-4.204-27.322c-2.522.42-3.782.42-5.044.42" fill="#FAF9F8" fill-rule="nonzero" mask="url(#e)"/></g></g></svg>