<svg width="640" height="384" viewBox="0 0 640 384" xmlns="http://www.w3.org/2000/svg"><title>materialize-logo</title><g fill="none" fill-rule="evenodd"><path d="M438 140.9h48.9c-17.1 5.7-22.5 17.1-25.5 49.5-2.1 23.1-12.6 29.1-12.6 29.1-7.8 0-15.9-33.1-22.8-68.5 2.7-6 6.6-9.2 12-10.1z" fill="#EB7077" fill-rule="nonzero"/><path d="M448.5 219.2h-48.9c8.7 0 14.7-16.5 18.3-37.5 2.4-14.1 4.1-23.7 8.1-31.2 6.9 35.4 14.7 68.7 22.5 68.7z" fill="#EB7077" fill-rule="nonzero"/><path d="M426 150.5c-3.6 6.6-6 17.1-8.1 31.2-3.6 21-9.6 37.5-18.3 37.5-9.3-2.1-16.8-37.5-26.7-91.5-.3-1.8-.6-3.3-.9-5.1 7.5-39 15.3-72.6 23.1-72.6h2.7c9.3 2.1 16.8 37.5 26.7 91.5.6 3.3.9 6 1.5 9z" fill="#F6A2AD" fill-rule="nonzero"/><path d="M295.5 219.2c8.4 0 24.6-78.6 24.6-79.2.3-1.8.6-3.3.9-5.1 11.1-60.9 17.7-82.8 25.2-84.6h2.7c8.1 0 16.2 36 23.1 72.6-.6 3.9-1.5 7.8-2.1 12-11.1 60.6-17.7 82.8-25.5 84.6-.443 0-.885-.102-1.326-.3H295.5zm53.4-168.9h46.2c-7.8 0-15.9 33.6-23.1 72.6-6.9-36.6-15-72.6-23.1-72.6z" fill="#EB7077" fill-rule="nonzero"/><path d="M320.1 140c-7.8 42-16.2 79.5-24.3 79.5-9.6-2.4-16.8-37.8-27-91.5-.3-1.8-.6-3.3-.9-5.1 7.5-39 15.3-72.6 23.1-72.6h2.7c9.3 2.1 16.5 36.9 26.4 89.7z" fill="#F6A2AD" fill-rule="nonzero"/><path d="M236.53 219.2H191.4c7.763 0 15.525-32.981 22.992-71.444a25.056 25.056 0 0 0-.192-.256c.9-4.2 1.5-8.4 2.4-12.6 11.4-60.9 18-82.8 25.5-84.6h2.7c8.1 0 16.2 36 23.1 72.6-.6 3.9-1.5 7.8-2.1 12-11.1 60.6-17.7 82.8-25.5 84.6-1.634 0-2.845-.053-3.77-.3zm8.27-168.9H291c-7.8 0-15.6 33.6-23.1 72.6-6.9-36.6-15-72.6-23.1-72.6z" fill="#EB7077" fill-rule="nonzero"/><path d="M214.5 147.2c-7.5 38.7-15.3 72-23.1 72-.9-1.2-6.3 0-11.4-30-4.5-27.6-12.6-45-25.8-48.3h48.9c4.8.3 8.1 2.1 11.4 6.3z" fill="#F6A2AD" fill-rule="nonzero"/><path d="M96.88 262.867l25.958 62.117 26.055-62.117h7.928v70.383h-5.946v-30.647l.483-31.421-26.2 62.068h-4.592l-26.104-61.827.484 30.986v30.841H89v-70.383h7.88zm109.44 70.383c-.58-1.644-.95-4.077-1.111-7.3-2.03 2.643-4.616 4.682-7.759 6.116-3.142 1.434-6.469 2.15-9.982 2.15-5.027 0-9.096-1.401-12.206-4.205-3.11-2.803-4.664-6.348-4.664-10.635 0-5.091 2.119-9.12 6.356-12.084 4.238-2.965 10.144-4.448 17.717-4.448h10.49v-5.946c0-3.738-1.152-6.679-3.457-8.822-2.304-2.143-5.663-3.214-10.079-3.214-4.028 0-7.363 1.031-10.006 3.094-2.642 2.062-3.964 4.543-3.964 7.444l-5.8-.048c0-4.158 1.933-7.759 5.8-10.804 3.867-3.046 8.62-4.569 14.26-4.569 5.834 0 10.434 1.459 13.802 4.375 3.367 2.917 5.1 6.985 5.196 12.206v24.75c0 5.06.532 8.846 1.595 11.36v.58h-6.187zm-18.175-4.157c3.867 0 7.323-.935 10.369-2.804 3.045-1.87 5.26-4.367 6.647-7.493v-11.504h-10.345c-5.769.064-10.28 1.12-13.535 3.166-3.255 2.046-4.883 4.858-4.883 8.435 0 2.933 1.088 5.366 3.263 7.3 2.176 1.933 5.004 2.9 8.484 2.9zm47.18-61.537v13.39h10.828v4.738h-10.828v34.853c0 2.9.523 5.06 1.57 6.477 1.048 1.418 2.796 2.127 5.246 2.127.966 0 2.53-.161 4.689-.483l.241 4.737c-1.514.548-3.577.822-6.187.822-3.964 0-6.848-1.152-8.653-3.457-1.805-2.304-2.707-5.696-2.707-10.175v-34.901h-9.62v-4.738h9.62v-13.39h5.8zm43.07 66.66c-4.447 0-8.467-1.095-12.06-3.286-3.594-2.192-6.39-5.245-8.387-9.16-1.998-3.916-2.997-8.307-2.997-13.173v-2.079c0-5.027.975-9.555 2.924-13.583 1.95-4.029 4.665-7.195 8.146-9.5 3.48-2.303 7.25-3.456 11.311-3.456 6.349 0 11.384 2.168 15.106 6.502 3.722 4.335 5.583 10.256 5.583 17.765v3.239h-37.318v1.112c0 5.93 1.7 10.868 5.1 14.816 3.4 3.948 7.678 5.921 12.834 5.921 3.094 0 5.825-.563 8.194-1.691 2.368-1.128 4.52-2.933 6.453-5.414l3.626 2.755c-4.254 6.155-10.426 9.233-18.514 9.233zm-1.063-49.306c-4.35 0-8.016 1.595-10.997 4.786-2.981 3.19-4.794 7.476-5.439 12.858h31.373v-.628c-.161-5.028-1.595-9.12-4.302-12.279-2.707-3.158-6.252-4.737-10.635-4.737zm56.123.967a21.606 21.606 0 0 0-3.916-.338c-3.61 0-6.663 1.007-9.16 3.02-2.498 2.015-4.278 4.94-5.342 8.774v35.917h-5.752v-52.304h5.655l.097 8.315c3.062-6.188 7.976-9.282 14.744-9.282 1.611 0 2.884.21 3.819.629l-.145 5.269zm15.613 47.373h-5.8v-52.304h5.8v52.304zm-6.816-67.434c0-1.096.355-2.022 1.064-2.78.709-.757 1.676-1.136 2.9-1.136 1.225 0 2.2.379 2.925 1.136.725.758 1.088 1.684 1.088 2.78 0 1.096-.363 2.014-1.088 2.755-.725.742-1.7 1.112-2.925 1.112-1.224 0-2.191-.37-2.9-1.112-.71-.74-1.064-1.66-1.064-2.755zm55.543 67.434c-.58-1.644-.95-4.077-1.112-7.3-2.03 2.643-4.616 4.682-7.758 6.116-3.143 1.434-6.47 2.15-9.983 2.15-5.027 0-9.096-1.401-12.205-4.205-3.11-2.803-4.665-6.348-4.665-10.635 0-5.091 2.119-9.12 6.356-12.084 4.238-2.965 10.144-4.448 17.717-4.448h10.49v-5.946c0-3.738-1.152-6.679-3.457-8.822-2.304-2.143-5.663-3.214-10.078-3.214-4.029 0-7.364 1.031-10.007 3.094-2.642 2.062-3.964 4.543-3.964 7.444l-5.8-.048c0-4.158 1.933-7.759 5.8-10.804 3.868-3.046 8.621-4.569 14.26-4.569 5.834 0 10.434 1.459 13.802 4.375 3.367 2.917 5.1 6.985 5.196 12.206v24.75c0 5.06.532 8.846 1.595 11.36v.58h-6.187zm-18.176-4.157c3.867 0 7.324-.935 10.369-2.804 3.045-1.87 5.261-4.367 6.647-7.493v-11.504H386.29c-5.769.064-10.28 1.12-13.535 3.166-3.255 2.046-4.882 4.858-4.882 8.435 0 2.933 1.087 5.366 3.262 7.3 2.176 1.933 5.004 2.9 8.484 2.9zm44.666 4.157h-5.8V259h5.8v74.25zm22.188 0h-5.8v-52.304h5.8v52.304zm-6.816-67.434c0-1.096.355-2.022 1.064-2.78.709-.757 1.675-1.136 2.9-1.136 1.225 0 2.2.379 2.925 1.136.725.758 1.087 1.684 1.087 2.78 0 1.096-.362 2.014-1.087 2.755-.725.742-1.7 1.112-2.925 1.112-1.225 0-2.191-.37-2.9-1.112-.71-.74-1.064-1.66-1.064-2.755zm26.345 62.552h33.983v4.882h-41.137v-4.254l31.711-43.07h-30.744v-4.98h38.043v4.303l-31.856 43.119zm64.582 5.849c-4.447 0-8.467-1.096-12.06-3.287-3.594-2.192-6.39-5.245-8.387-9.16-1.998-3.916-2.997-8.307-2.997-13.173v-2.079c0-5.027.974-9.555 2.924-13.583 1.95-4.029 4.665-7.195 8.145-9.5 3.481-2.303 7.251-3.456 11.312-3.456 6.349 0 11.384 2.168 15.106 6.502 3.722 4.335 5.583 10.256 5.583 17.765v3.239h-37.318v1.112c0 5.93 1.7 10.868 5.1 14.816 3.4 3.948 7.678 5.921 12.834 5.921 3.094 0 5.825-.563 8.194-1.691 2.368-1.128 4.52-2.933 6.453-5.414l3.626 2.755c-4.254 6.155-10.426 9.233-18.515 9.233zm-1.063-49.307c-4.35 0-8.016 1.595-10.997 4.786-2.981 3.19-4.794 7.476-5.439 12.858h31.373v-.628c-.161-5.028-1.595-9.12-4.302-12.279-2.707-3.158-6.252-4.737-10.635-4.737z" fill="#EE6E73"/></g></svg>