<svg width="640" height="384" viewBox="0 0 640 384" xmlns="http://www.w3.org/2000/svg"><title>mongodb-logo</title><g fill-rule="nonzero" fill="none"><path d="M563.198 178.675c-.506.101-1.014 1.22-1.014 1.83-.1 4.072-.202 14.859-.202 22.185 0 .204.303.611.608.611 1.522.102 5.175.203 8.32.203 4.364 0 6.9-.61 8.323-1.22 3.651-1.832 5.377-5.8 5.377-10.178 0-9.87-6.9-13.635-17.15-13.635-.71-.102-2.738-.102-4.262.204zm26.182 45.488c0-10.075-7.408-15.672-20.803-15.672-.609 0-4.87-.102-5.886.101-.304.103-.71.307-.71.612 0 7.224-.101 18.725.203 23.202.203 1.933 1.624 4.681 3.35 5.495 1.825 1.018 5.986 1.22 8.827 1.22 8.016 0 15.019-4.476 15.019-14.958zm-46.881-51.084c1.014 0 4.058.304 11.871.304 7.408 0 13.294-.203 20.498-.203 8.828 0 21.005 3.154 21.005 16.383 0 6.513-4.567 11.704-10.553 14.248-.303.101-.303.304 0 .406 8.523 2.138 16.033 7.429 16.033 17.4 0 9.771-6.088 15.978-14.917 19.846-5.378 2.34-12.075 3.154-18.874 3.154-5.175 0-19.077-.61-26.788-.406-.812-.307.71-3.97 1.42-4.58 1.827-.102 3.246-.204 5.175-.815 2.74-.711 3.044-1.526 3.45-5.698.203-3.562.203-16.181.203-25.136 0-12.313.102-20.657 0-24.727-.101-3.154-1.217-4.173-3.45-4.784-1.726-.304-4.566-.712-6.9-1.017-.509-.51 1.217-3.97 1.827-4.375zm-58.552 63.296c2.437 1.932 7.206 2.746 11.468 2.746 5.48 0 10.959-1.016 16.236-5.8 5.378-4.884 9.132-12.414 9.132-24.422 0-11.5-4.363-20.863-13.293-26.357-5.074-3.156-11.568-4.477-19.077-4.477-2.233 0-4.364.102-5.682.711-.306.204-1.015 1.12-1.015 1.628-.203 2.036-.203 17.707-.203 26.866 0 9.464 0 22.693.203 24.22 0 1.527.71 3.867 2.232 4.885h-.001zm-23.035-63.298c1.93 0 9.336.306 12.888.306 6.394 0 10.96-.304 23.034-.304 10.148 0 18.672 2.746 24.76 7.936 7.407 6.411 11.265 15.265 11.265 26.051 0 15.367-7.003 24.22-14.005 29.309-7 5.19-16.133 8.242-29.122 8.242-6.9 0-18.772-.203-28.616-.306h-.101c-.507-.915.811-4.477 1.623-4.578 2.639-.306 3.35-.408 4.669-.916 2.13-.815 2.536-1.934 2.841-5.699.304-7.022.202-15.468.202-25.034 0-6.817.102-20.15-.102-24.424-.303-3.56-1.825-4.477-4.87-5.088-1.522-.304-3.552-.712-6.392-1.016-.407-.714 1.42-3.868 1.926-4.477v-.002z" fill="#8E714E"/><path d="M338.13 240.342c-2.537-.305-4.363-.71-6.595-1.729-.305-.204-.813-1.22-.813-1.628-.202-3.562-.202-13.738-.202-20.556 0-5.496-.913-10.278-3.248-13.636-2.74-3.868-6.696-6.106-11.77-6.106-4.465 0-10.453 3.052-15.425 7.327-.101.101-.913.815-.812-.306 0-1.119.204-3.358.305-4.885.102-1.425-.71-2.136-.71-2.136-3.247 1.628-12.38 3.765-15.73 4.07-2.434.51-3.043 2.85-.505 3.664h.101c2.738.813 4.566 1.73 5.985 2.646 1.015.814.914 1.933.914 2.85.101 7.63.101 19.334-.202 25.745-.101 2.544-.812 3.46-2.64 3.867l.204-.102c-1.42.306-2.537.61-4.262.814-.61.61-.61 3.867 0 4.58 1.116 0 7.001-.306 11.874-.306 6.696 0 10.147.306 11.871.306.71-.814.914-3.868.508-4.58-1.929-.102-3.35-.304-4.668-.712-1.826-.408-2.334-1.323-2.436-3.46-.202-5.394-.202-16.791-.202-24.525 0-2.137.608-3.155 1.216-3.766 2.335-2.034 6.09-3.459 9.438-3.459 3.248 0 5.378 1.018 7.002 2.341 2.232 1.83 2.942 4.477 3.247 6.41.507 4.376.304 13.026.304 20.557 0 4.07-.304 5.088-1.825 5.596-.711.306-2.538.714-4.669.915-.71.714-.507 3.869 0 4.581 2.943 0 6.393-.305 11.467-.305 6.29 0 10.35.305 11.975.305.505-.61.709-3.562.303-4.377zm28.108-38.871c-5.377 0-8.726 4.171-8.726 10.683 0 6.615 2.942 14.248 11.263 14.248 1.42 0 4.06-.611 5.276-2.036 1.929-1.83 3.248-5.495 3.248-9.362 0-8.446-4.16-13.534-11.06-13.534l-.001.001zm-.71 44.977c-2.029 0-3.45.611-4.363 1.12-4.262 2.746-6.19 5.393-6.19 8.55 0 2.949 1.116 5.289 3.552 7.325 2.942 2.544 7 3.765 12.176 3.765 10.35 0 14.917-5.597 14.917-11.09 0-3.87-1.929-6.413-5.885-7.837-2.842-1.222-8.016-1.833-14.207-1.833zm.71 26.46c-6.19 0-10.655-1.324-14.51-4.275-3.755-2.85-5.378-7.124-5.378-10.074 0-.814.203-3.054 2.03-5.089 1.115-1.221 3.551-3.561 9.335-7.53.203-.102.304-.203.304-.408 0-.203-.204-.407-.406-.507-4.77-1.832-6.19-4.784-6.597-6.412v-.204c-.1-.61-.303-1.22.61-1.831.711-.509 1.726-1.12 2.84-1.83 1.726-1.02 3.553-2.14 4.669-3.056.203-.202.203-.405.203-.61 0-.203-.203-.407-.407-.508-7.1-2.34-10.653-7.633-10.653-15.57 0-5.19 2.334-9.871 6.494-12.822 2.84-2.239 9.944-4.987 14.612-4.987h.305c4.769.102 7.407 1.12 11.16 2.443 2.03.712 3.96 1.017 6.599 1.017 3.956 0 5.681-1.221 7.1-2.645.103.203.306.713.408 2.035.1 1.323-.305 3.256-1.32 4.681-.811 1.12-2.638 1.934-4.464 1.934h-.508c-1.827-.204-2.64-.408-2.64-.408l-.404.204c-.101.204 0 .407.101.713l.102.204c.203.915.608 3.662.608 4.375 0 8.345-3.348 12.007-6.9 14.755-3.45 2.544-7.407 4.172-11.872 4.58-.101 0-.506 0-1.42.101-.508 0-1.218.103-1.32.103h-.101c-.812.203-2.84 1.22-2.84 2.95 0 1.526.912 3.358 5.275 3.664.913.101 1.826.101 2.842.204 5.784.406 12.988.915 16.336 2.034 4.668 1.73 7.61 5.902 7.61 10.889 0 7.532-5.376 14.553-14.306 18.927-4.363 1.935-8.728 2.952-13.497 2.952v.001zm57.84-70.929c-2.13 0-4.059.507-5.48 1.525-3.956 2.443-5.986 7.328-5.986 14.45 0 13.333 6.697 22.695 16.236 22.695 2.841 0 5.073-.815 7.001-2.443 2.943-2.443 4.466-7.327 4.466-14.146 0-13.228-6.597-22.082-16.236-22.082l-.001.001zm1.827 43.554c-17.25 0-23.44-12.72-23.44-24.626 0-8.345 3.348-14.756 10.045-19.336 4.77-2.95 10.453-4.578 15.526-4.578 13.191 0 22.426 9.463 22.426 23.1 0 9.26-3.653 16.586-10.655 21.064-3.349 2.239-9.133 4.376-13.903 4.376h.001zM245.08 201.978c-2.131 0-4.059.508-5.48 1.526-3.957 2.443-5.987 7.328-5.987 14.45 0 13.333 6.697 22.695 16.236 22.695 2.841 0 5.073-.815 7.002-2.443 2.942-2.443 4.465-7.327 4.465-14.146 0-13.228-6.495-22.082-16.236-22.082zm1.826 43.555c-17.25 0-23.44-12.72-23.44-24.626 0-8.345 3.348-14.756 10.045-19.336 4.77-2.95 10.453-4.578 15.526-4.578 13.192 0 22.426 9.463 22.426 23.1 0 9.26-3.653 16.586-10.655 21.064-3.248 2.239-9.031 4.376-13.902 4.376zm-115.984-1.018c-.204-.304-.407-1.22-.305-2.34 0-.815.204-1.323.305-1.526 2.13-.307 3.247-.612 4.464-.916 2.03-.51 2.842-1.628 2.943-4.172.305-6.106.305-17.708.203-25.747v-.204c0-.915 0-2.036-1.116-2.85-1.624-1.016-3.552-1.931-6.088-2.646-.913-.303-1.522-.813-1.421-1.422 0-.611.609-1.324 1.929-1.528 3.348-.305 12.073-2.441 15.524-3.969.203.203.508.815.508 1.63l-.101 1.117c-.103 1.12-.204 2.444-.204 3.766 0 .407.407.713.812.713.203 0 .407-.102.609-.204 6.494-5.088 12.38-6.92 15.423-6.92 4.974 0 8.83 2.341 11.772 7.225.203.307.406.408.71.408.203 0 .507-.101.609-.305 5.987-4.58 11.975-7.328 15.931-7.328 9.437 0 15.019 7.022 15.019 18.928 0 3.358 0 7.734-.102 11.704 0 3.56-.1 6.817-.1 9.158 0 .507.708 2.136 1.825 2.442 1.42.712 3.349 1.017 5.886 1.424h.1c.204.713-.201 3.358-.607 3.868-.61 0-1.523 0-2.537-.102a150.29 150.29 0 0 0-7.713-.204c-6.29 0-9.538.102-12.685.306-.201-.814-.303-3.257 0-3.868 1.828-.304 2.74-.61 3.858-.915 2.03-.61 2.536-1.527 2.639-4.173 0-1.933.404-18.419-.205-22.388-.608-4.07-3.653-8.852-10.35-8.852-2.537 0-6.494 1.017-10.35 3.967-.202.204-.407.713-.407 1.018v.103c.407 2.136.407 4.58.407 8.344v6.614c0 4.58-.102 8.854 0 12.11 0 2.24 1.32 2.748 2.436 3.156.609.1 1.014.202 1.522.304.912.204 1.826.408 3.247.712.203.408.203 1.73-.101 2.85-.103.61-.306.915-.407 1.018-3.45-.102-7.002-.204-12.176-.204-1.522 0-4.161.102-6.393.102-1.828 0-3.552.102-4.566.102-.102-.204-.306-.916-.306-2.036 0-.915.204-1.628.407-1.832.507-.101.913-.203 1.42-.203 1.217-.204 2.233-.408 3.247-.61 1.726-.509 2.334-1.425 2.436-3.664.304-5.088.609-19.64-.102-23.304-1.217-5.902-4.565-8.853-9.944-8.853-3.145 0-7.104 1.526-10.35 3.97-.508.406-.914 1.423-.914 2.339v6.004c0 7.327 0 16.486.101 20.455.103 1.22.507 2.646 2.842 3.154.508.101 1.32.305 2.334.408l1.826.304c.204.611.102 3.054-.304 3.868-1.015 0-2.232-.102-3.654-.102-2.13-.102-4.87-.204-7.914-.204-3.552 0-6.088.102-8.118.204-1.42-.204-2.537-.204-3.754-.204z" fill="#442D22"/><path d="M77.545 268.939l-4.16-1.426s.508-21.268-7.104-22.794c-5.072-5.903.814-250.336 19.079-.815 0 0-6.292 3.154-7.409 8.549-1.218 5.292-.406 16.486-.406 16.486z" fill="#FFF"/><path d="M77.545 268.939l-4.16-1.426s.508-21.268-7.104-22.794c-5.072-5.903.814-250.336 19.079-.815 0 0-6.292 3.154-7.409 8.549-1.218 5.292-.406 16.486-.406 16.486z" fill="#A6A385"/><path d="M79.778 248.382s36.43-24.016 27.905-73.982c-8.219-36.328-27.6-48.234-29.732-52.814-2.333-3.256-4.566-8.954-4.566-8.954l1.523 101.048c0 .103-3.146 30.937 4.871 34.704" fill="#FFF"/><path d="M79.778 248.382s36.43-24.016 27.905-73.982c-8.219-36.328-27.6-48.234-29.732-52.814-2.333-3.256-4.566-8.954-4.566-8.954l1.523 101.048c0 .103-3.146 30.937 4.871 34.704" fill="#499D4A"/><path d="M71.255 249.705s-34.198-23.406-32.168-64.619c1.927-41.214 26.078-61.464 30.746-65.128 3.045-3.256 3.146-4.478 3.35-7.734 2.13 4.58 1.725 68.487 2.028 76.016.913 29.002-1.623 55.97-3.956 61.465z" fill="#FFF"/><path d="M71.255 249.705s-34.198-23.406-32.168-64.619c1.927-41.214 26.078-61.464 30.746-65.128 3.045-3.256 3.146-4.478 3.35-7.734 2.13 4.58 1.725 68.487 2.028 76.016.913 29.002-1.623 55.97-3.956 61.465z" fill="#58AA50"/></g></svg>