<svg width="640" height="384" viewBox="0 0 640 384" xmlns="http://www.w3.org/2000/svg"><title>MySQL Logo</title><g fill="none" fill-rule="evenodd"><path d="M33.626-7.26h573.453v397.47H33.626z"/><path d="M216.162 304.749h-15.525c-.549-26.205-2.061-50.841-4.533-73.926h-.138l-23.637 73.926h-11.82l-23.496-73.926h-.135c-1.743 22.164-2.841 46.806-3.297 73.926H119.43c.912-32.979 3.204-63.897 6.867-92.757h19.242l22.395 68.157h.138l22.533-68.157h18.411c4.032 33.804 6.414 64.725 7.146 92.757zm67.329-68.436c-6.321 34.302-14.661 59.226-25.011 74.784-8.064 11.976-16.899 17.97-26.52 17.97-2.565 0-5.73-.774-9.48-2.31v-8.271c1.833.264 3.984.414 6.456.414 4.494 0 8.106-1.236 10.86-3.714 3.294-3.018 4.941-6.411 4.941-10.164 0-2.574-1.284-7.836-3.846-15.804l-17.037-52.908h15.252l12.228 39.57c2.748 8.985 3.894 15.258 3.435 18.831 6.687-17.859 11.358-37.332 14.019-58.404h14.703v.006z" fill="#5D87A1" fill-rule="nonzero"/><path d="M490.146 304.749h-44.1v-92.757h14.835v81.339h29.265v11.418zm-55.644 2.241l-17.052-8.415c1.512-1.242 2.958-2.586 4.26-4.143 7.248-8.514 10.863-21.105 10.863-37.782 0-30.687-12.042-46.038-36.135-46.038-11.814 0-21.03 3.894-27.621 11.685-7.242 8.52-10.857 21.066-10.857 37.653 0 16.305 3.204 28.266 9.615 35.853 5.865 6.873 14.706 10.314 26.529 10.314 4.41 0 8.457-.54 12.144-1.629l22.2 12.924 6.054-10.422zm-55.239-20.802c-3.756-6.042-5.634-15.744-5.634-29.121 0-23.355 7.095-35.046 21.3-35.046 7.425 0 12.867 2.796 16.347 8.376 3.75 6.051 5.637 15.666 5.637 28.857 0 23.547-7.101 35.322-21.297 35.322-7.428.003-12.87-2.784-16.353-8.388zm-27.768-7.149c0 7.866-2.886 14.319-8.652 19.374-5.772 5.034-13.512 7.557-23.211 7.557-9.072 0-17.868-2.898-26.382-8.664l3.987-7.965c7.326 3.669 13.959 5.493 19.914 5.493 5.589 0 9.957-1.239 13.125-3.696 3.165-2.466 5.052-5.925 5.052-10.299 0-5.511-3.843-10.221-10.893-14.166-6.501-3.57-19.503-11.034-19.503-11.034-7.047-5.136-10.575-10.65-10.575-19.734 0-7.518 2.631-13.587 7.896-18.204 5.271-4.635 12.072-6.945 20.409-6.945 8.61 0 16.437 2.307 23.487 6.873l-3.576 7.968c-6.03-2.562-11.982-3.843-17.853-3.843-4.755 0-8.427 1.143-10.98 3.438-2.574 2.286-4.161 5.211-4.161 8.799 0 5.484 3.924 10.254 11.166 14.277 6.588 3.576 19.914 11.169 19.914 11.169 7.227 5.127 10.836 10.59 10.836 19.602z" fill="#F8981D" fill-rule="nonzero"/><path d="M508.77 180.924c-8.97-.228-15.915.675-21.744 3.141-1.683.672-4.359.672-4.593 2.799.909.9 1.014 2.352 1.803 3.594 1.344 2.241 3.687 5.256 5.826 6.828 2.349 1.8 4.707 3.582 7.179 5.151 4.359 2.697 9.3 4.266 13.548 6.954 2.475 1.563 4.935 3.585 7.413 5.268 1.218.897 1.998 2.352 3.579 2.913v-.342c-.792-1.008-1.017-2.466-1.794-3.588l-3.366-3.246c-3.252-4.368-7.293-8.181-11.652-11.313-3.588-2.472-11.436-5.832-12.891-9.966l-.228-.228c2.466-.231 5.391-1.125 7.734-1.812 3.813-1.005 7.29-.777 11.202-1.782 1.8-.45 3.585-1.014 5.391-1.569v-1.011c-2.028-2.019-3.474-4.701-5.607-6.609-5.706-4.929-11.994-9.75-18.492-13.785-3.48-2.247-7.956-3.693-11.661-5.604-1.335-.675-3.585-1.008-4.371-2.13-2.01-2.466-3.141-5.712-4.599-8.631-3.24-6.159-6.387-12.993-9.183-19.506-2.022-4.368-3.252-8.73-5.718-12.771-11.55-19.05-24.093-30.588-43.371-41.913-4.143-2.358-9.072-3.363-14.337-4.599l-8.409-.444c-1.794-.786-3.591-2.919-5.157-3.927-6.396-4.032-22.863-12.771-27.567-1.233-3.03 7.293 4.482 14.463 7.062 18.162 1.905 2.568 4.374 5.49 5.706 8.406.789 1.905 1.011 3.927 1.8 5.94 1.794 4.932 3.471 10.419 5.829 15.021 1.23 2.346 2.571 4.812 4.143 6.936.9 1.242 2.466 1.791 2.808 3.816-1.563 2.232-1.686 5.601-2.583 8.403-4.032 12.663-2.457 28.35 3.258 37.656 1.788 2.802 6.054 8.97 11.76 6.606 5.052-2.016 3.933-8.403 5.385-14.004.333-1.353.114-2.241.786-3.129v.219c1.563 3.135 3.141 6.156 4.59 9.3 3.477 5.487 9.531 11.205 14.574 15.006 2.685 2.028 4.812 5.496 8.175 6.735v-.336h-.222c-.681-1.005-1.677-1.455-2.571-2.235-2.022-2.019-4.26-4.485-5.829-6.723-4.698-6.279-8.856-13.23-12.546-20.403-1.806-3.48-3.363-7.284-4.818-10.758-.678-1.341-.678-3.363-1.803-4.038-1.686 2.463-4.143 4.596-5.373 7.614-2.133 4.827-2.355 10.764-3.147 16.938l-.441.216c-3.57-.897-4.812-4.59-6.168-7.725-3.357-7.962-3.921-20.742-1.008-29.928.78-2.349 4.155-9.747 2.808-11.985-.675-2.145-2.919-3.366-4.149-5.055-1.446-2.124-3.03-4.812-4.038-7.17-2.688-6.273-4.041-13.224-6.936-19.494-1.353-2.922-3.702-5.946-5.604-8.637-2.136-3.024-4.485-5.154-6.174-8.739-.558-1.233-1.341-3.249-.444-4.59.219-.9.675-1.236 1.569-1.461 1.452-1.227 5.601.333 7.056 1.008 4.155 1.68 7.629 3.249 11.097 5.601 1.569 1.125 3.252 3.255 5.265 3.816h2.358c3.579.78 7.614.216 10.983 1.23 5.937 1.908 11.316 4.707 16.14 7.728 14.679 9.309 26.784 22.536 34.956 38.334 1.341 2.574 1.911 4.932 3.135 7.617 2.361 5.496 5.28 11.1 7.623 16.479 2.355 5.265 4.599 10.641 7.962 15.015 1.677 2.352 8.415 3.585 11.436 4.818 2.235 1.005 5.715 1.899 7.731 3.132 3.813 2.349 7.611 5.046 11.196 7.629 1.785 1.344 7.395 4.146 7.728 6.39M394.452 83.532a17.46 17.46 0 0 0-4.587.564v.225h.216c.903 1.791 2.472 3.033 3.591 4.596.903 1.797 1.686 3.579 2.571 5.373l.216-.222c1.581-1.119 2.367-2.913 2.367-5.604-.681-.792-.786-1.566-1.353-2.352-.66-1.122-2.115-1.68-3.021-2.58" fill="#5D87A1" fill-rule="nonzero"/><path d="M519.444 304.734h2.322V293.37h-3.483l-2.841 7.755-3.087-7.755h-3.354v11.364h2.193v-8.646h.123l3.234 8.646h1.671l3.222-8.646v8.646zm-18.705 0h2.457v-9.438h3.216v-1.929h-9.024v1.929h3.345l.006 9.438z" fill="#F8981D" fill-rule="nonzero"/></g></svg>