<svg width="640" height="384" viewBox="0 0 640 384" xmlns="http://www.w3.org/2000/svg"><title>npm-logo</title><g fill-rule="nonzero" fill="none"><path d="M90 103h460v153.429H320V282H217.778v-25.571H90V103zm25.556 127.857h51.11v-76.714h25.556v76.714h25.556V128.571H115.556v102.286zm127.777-102.286V256.43h51.111v-25.572h51.112V128.571H243.333zm51.111 25.572H320v51.143h-25.556v-51.143zm76.667-25.572v102.286h51.111v-76.714h25.556v76.714h25.555v-76.714h25.556v76.714h25.555V128.571H371.111z" fill="#CB3837"/><path d="M116 231h51v-76.5h25.5V231H218V129H116v102zm127-102v128h51v-25.6h51V129H243zm76.5 76.8H294v-51.2h25.5v51.2zM371 129v102h51v-76.5h25.5V231H473v-76.5h25.5V231H524V129H371z" fill="#FFF"/></g></svg>