<svg width="640" height="384" viewBox="0 0 640 384" xmlns="http://www.w3.org/2000/svg"><title>php-logo</title><g fill-rule="nonzero" fill="none"><ellipse fill="#8993BE" cx="320" cy="192.26" rx="256" ry="133.26"/><path d="M135.89 271.164l28.056-142.028h64.874c28.054 1.754 42.082 15.78 42.082 40.33 0 42.082-33.314 66.63-63.124 64.876H176.22l-7.014 36.822H135.89zm47.342-63.122h21.042c15.78-1.754 29.808-7.014 31.56-36.824 0-10.52-8.766-15.78-21.04-15.78H192l-8.768 52.604zm81.152 26.3l28.054-142.026h33.316l-7.014 36.82h31.56c28.056 1.754 38.576 15.78 35.07 33.316l-12.274 71.89h-35.068l12.274-64.876c1.752-8.768 1.752-14.028-10.52-14.028H313.48l-15.78 78.904h-33.316zm106.466 36.822l28.054-142.028h64.876c28.056 1.754 42.084 15.78 42.084 40.33 0 42.082-33.316 66.63-63.124 64.876h-31.562l-7.014 36.822H370.85zm47.34-63.122h21.044c15.78-1.754 29.808-7.014 31.56-36.824 0-10.52-8.766-15.78-21.04-15.78h-22.796l-8.768 52.604z" fill="#232531"/></g></svg>