<svg width="640" height="384" viewBox="0 0 640 384" xmlns="http://www.w3.org/2000/svg"><title>phpmyadmin-logo</title><g fill="none" fill-rule="evenodd"><path d="M451.098 42.88l-.283-.564c-.14-.14-.282-.283-.564-.283l-.566.143c-.282.282-.424.423-.424.705l-12.01 217.347 1.838-.283 11.585-211.43 13.847 22.741h-.141c10.456 30.788 14.835 63.555 13.14 98.3l.849 1.27 13.705 24.292.847.847c21.053 18.502 44.648 30.931 70.788 37.286l6.358 10.312.848.281.142-.281-120.242-196.6.283-4.096" fill="#CCC" fill-rule="nonzero"/><path d="M446.86 119.571c14.835 30.366 20.203 76.267 16.248 137.705l57.789-7.062L446.86 119.57zM578.545 253.038c5.933-.706 9.748-1.977 11.444-3.813l-302.367 36.863h-.141c.141 12.57 5.792 22.456 16.813 29.518 2.967 2.118 6.076 3.672 8.901 4.66 2.685-3.106 5.653-5.366 9.186-7.485h.14c31.65-19.208 78.701-22.174 140.87-9.038l.706.14c6.782 1.413 13.564 3.108 19.923 5.085 1.835.282 3.39-.283 4.661-1.413 2.262-1.695 5.088-2.966 8.903-3.812v-.142c10.032-17.796 23.594-30.93 40.551-39.546 11.727-5.79 25.291-9.604 40.41-11.017M433.296 258.547l13.846-212.135c-20.064 77.397-52.28 149.709-96.504 216.795l82.658-4.66M355.443 87.653l-.565-.283-.565.142-.283.705-11.444 183.606 1.695-.142 11.445-183.464-.283-.564M339.336 267.868l12.15-179.085-64.005 184.594 51.855-5.509" fill="#CCC" fill-rule="nonzero"/><path d="M341.879 327.562c-15.967 7.627-27.552 8.898-34.9 4.238-7.348-4.943-18.652-3.814-33.91 3.389M379.32 328.692a41.41 41.41 0 0 0-9.607-1.977c-6.923-.565-15.26 2.118-25.009 7.91-9.75 5.93-21.476 8.191-35.465 6.92M466.5 314.286c-67.257-13.84-115.72-10.593-145.39 9.886M508.888 320.925a30.631 30.631 0 0 0-9.61-1.978c-6.922-.565-15.258 2.118-25.007 7.91-9.75 5.79-21.477 8.05-35.465 6.92" stroke="#CCC" stroke-width="1.666" stroke-linecap="round" stroke-linejoin="round"/><path d="M418.6 89.348c-6.924-4.238-14.128-3.107-21.617 3.53-6.5-6.637-13.281-7.768-20.347-3.53M402.917 65.62c-7.064-4.237-13.987-2.543-21.053 5.084-6.924-7.627-13.987-9.32-21.053-5.084" stroke="#CCC" stroke-width="4.026" stroke-linecap="round" stroke-linejoin="round"/><path d="M57.88 286.754h18.73c5.627 0 9.759 1.601 12.396 4.803 2.636 3.203 3.492 7.666 2.566 13.389-.38 2.348-1.057 4.503-2.032 6.465a20.812 20.812 0 0 1-3.865 5.378c-1.905 1.952-4.036 3.35-6.397 4.195-2.36.844-5.379 1.266-9.055 1.266h-8.342l-2.075 12.837h-9.74l7.815-48.333zm8.504 7.646l-3.278 20.274h5.924c3.927 0 6.837-.802 8.732-2.406 1.893-1.605 3.141-4.275 3.746-8.012.583-3.603.244-6.146-1.013-7.63-1.258-1.484-3.737-2.226-7.438-2.226h-6.673zM102.507 273.917h9.666l-2.075 12.837h8.6c5.412 0 9.163 1.025 11.254 3.075 2.092 2.05 2.77 5.353 2.033 9.912l-3.64 22.509h-9.813l3.464-21.423c.394-2.436.203-4.092-.573-4.97-.775-.877-2.399-1.316-4.868-1.316h-7.715l-4.48 27.709H94.69l7.816-48.333M142.513 286.754h18.729c5.628 0 9.76 1.601 12.396 4.803 2.637 3.203 3.492 7.666 2.567 13.389-.38 2.348-1.057 4.503-2.031 6.465a20.858 20.858 0 0 1-3.866 5.378c-1.905 1.952-4.037 3.35-6.397 4.195-2.36.844-5.379 1.266-9.056 1.266h-8.34l-2.076 12.837h-9.74l7.814-48.333zm8.504 7.646l-3.278 20.274h5.924c3.927 0 6.837-.802 8.73-2.406 1.894-1.605 3.144-4.275 3.748-8.012.582-3.603.244-6.146-1.014-7.63s-3.737-2.226-7.436-2.226h-6.674z" fill="#6C78AF" fill-rule="nonzero"/><path fill="#F89C0E" fill-rule="nonzero" d="M192.67 263.645h18.733l8.229 44.94 22.762-44.94h18.662l-9.468 58.565h-12.507l8.407-45.617-22.951 45.617h-13.553l-8.62-46.095-6.172 46.095H183.2l9.468-58.565M283.537 312.732h9.458l5.42-33.532h11.757l-6.767 41.855c-.918 5.69-2.976 9.905-6.17 12.644-3.194 2.738-7.625 4.108-13.292 4.108h-23.054l1.409-8.712h21.03c2.257 0 4.077-.527 5.46-1.58 1.38-1.056 2.234-2.583 2.557-4.584l.117-.721h-10.406c-6.657 0-11.196-1.268-13.617-3.805-2.423-2.537-3.154-6.767-2.198-12.69l4.288-26.515h11.625l-4.146 25.638c-.524 3.243-.367 5.37.477 6.38.842 1.01 2.859 1.514 6.052 1.514M341.837 263.645h13.537l16.407 58.565h-14.198l-3.319-13.94h-26.369l-7.66 13.94h-13.54l35.142-58.565zm4.393 11.63l-12.518 22.54h18.076l-5.558-22.54zM416.104 322.21h-22.585c-6.825 0-11.837-1.94-15.037-5.82-3.198-3.88-4.235-9.287-3.114-16.223.46-2.843 1.281-5.454 2.464-7.832 1.183-2.379 2.745-4.551 4.687-6.518 2.308-2.365 4.901-4.059 7.778-5.082 2.876-1.023 6.53-1.535 10.96-1.535h10.087l2.515-15.555h11.714l-9.47 58.565zm-10.222-9.223l3.966-24.522h-7.111c-4.769 0-8.307.964-10.618 2.89-2.307 1.929-3.827 5.139-4.553 9.63-.705 4.36-.289 7.45 1.25 9.271 1.539 1.821 4.54 2.731 9.004 2.731h8.062zM433.278 279.2h45.148c6.546 0 11.064 1.236 13.552 3.705 2.487 2.47 3.284 6.48 2.387 12.03l-4.41 27.275h-11.846l4.17-25.8c.513-3.162.356-5.249-.47-6.26-.827-1.01-2.778-1.515-5.855-1.515h-6.595l-5.429 33.575h-12.022l5.43-33.575h-13.74l-5.43 33.575h-11.845l6.955-43.01M520.543 274.313h-12.33l1.724-10.668h12.33l-1.724 10.668zm-7.745 47.897h-12.33l6.953-43.01h12.33l-6.953 43.01zM529.921 279.2h22.121c6.686 0 11.263 1.216 13.73 3.645 2.469 2.43 3.248 6.461 2.338 12.09L563.7 322.21h-11.758l4.185-25.879c.52-3.217.34-5.303-.537-6.26-.878-.957-2.873-1.436-5.982-1.436h-9.455l-5.43 33.575h-11.756l6.953-43.01"/></g></svg>