<svg width="640" height="384" viewBox="0 0 640 384" xmlns="http://www.w3.org/2000/svg"><title>sass-logo</title><path d="M462.896 214.546c-13.846.077-25.835 3.405-35.89 8.358-3.714-7.352-7.426-13.776-8.045-18.574-.696-5.573-1.547-8.978-.696-15.634.85-6.656 4.718-16.098 4.718-16.872-.077-.696-.85-4.102-8.818-4.18-7.967-.077-14.851 1.549-15.625 3.638-.773 2.09-2.32 6.888-3.326 11.842-1.392 7.275-15.934 33.047-24.21 46.591-2.708-5.263-5.028-9.906-5.493-13.621-.696-5.573-1.547-8.978-.696-15.634.851-6.656 4.719-16.098 4.719-16.872-.078-.697-.851-4.102-8.818-4.18-7.967-.077-14.852 1.549-15.625 3.638-.774 2.09-1.624 7.043-3.326 11.842-1.624 4.798-20.962 47.83-25.99 59.051-2.552 5.728-4.796 10.294-6.42 13.39-1.624 3.095-.077.232-.232.541a2135.11 2135.11 0 0 0-2.166 4.102v.078c-1.083 1.935-2.243 3.792-2.784 3.792-.387 0-1.16-5.185.154-12.306 2.862-14.937 9.824-38.232 9.746-39.084 0-.387 1.315-4.489-4.486-6.578-5.647-2.09-7.658 1.393-8.122 1.393-.464 0-.85 1.238-.85 1.238s6.265-26.237-11.99-26.237c-11.448 0-27.227 12.46-35.04 23.838-4.95 2.709-15.47 8.436-26.608 14.55-4.255 2.322-8.664 4.798-12.84 7.043l-.851-.929c-22.123-23.605-63.04-40.322-61.34-72.054.62-11.532 4.642-41.948 78.589-78.787C291.1 57.745 339.599 66.026 348.03 84.446c11.99 26.314-25.912 75.227-88.875 82.27-23.98 2.709-36.587-6.578-39.759-10.061-3.326-3.638-3.79-3.793-5.027-3.096-2.011 1.084-.774 4.334 0 6.269 1.856 4.876 9.591 13.544 22.74 17.878 11.526 3.792 39.681 5.882 73.716-7.275 38.133-14.782 67.913-55.801 59.173-90.087-8.895-34.905-66.754-46.36-121.44-26.933-32.565 11.609-67.837 29.72-93.208 53.48-30.167 28.17-34.962 52.782-32.951 62.998 7.039 36.453 57.24 60.213 77.35 77.782-1.005.541-1.933 1.083-2.784 1.547-10.056 4.954-48.344 24.999-57.936 46.205-10.829 23.992 1.702 41.251 10.056 43.573 25.835 7.198 52.289-5.727 66.599-27.01 14.232-21.284 12.53-48.914 5.956-61.53l-.232-.464 7.89-4.643c5.104-3.019 10.132-5.805 14.541-8.204-2.475 6.733-4.254 14.705-5.182 26.314-1.083 13.621 4.486 31.267 11.834 38.233 3.249 3.018 7.117 3.096 9.514 3.096 8.509 0 12.376-7.043 16.63-15.48 5.26-10.293 9.902-22.211 9.902-22.211s-5.802 32.273 10.055 32.273c5.801 0 11.603-7.507 14.233-11.377v.077s.154-.232.464-.774c.619-.928.928-1.47.928-1.47v-.155c2.32-4.024 7.503-13.234 15.238-28.481 9.978-19.658 19.57-44.27 19.57-44.27s.928 6.037 3.79 15.944c1.702 5.882 5.414 12.305 8.276 18.574a304.743 304.743 0 0 1-3.712 5.108l.077.078a220.526 220.526 0 0 1-6.11 7.74c-7.89 9.441-17.327 20.2-18.565 23.295-1.47 3.637-1.16 6.346 1.702 8.513 2.088 1.548 5.801 1.858 9.746 1.548 7.116-.464 12.067-2.244 14.542-3.328 3.867-1.393 8.276-3.483 12.53-6.578 7.736-5.727 12.454-13.854 11.99-24.69-.232-5.958-2.166-11.84-4.564-17.413.696-1.006 1.393-2.012 2.089-3.096 12.221-17.878 21.658-37.536 21.658-37.536s.928 6.037 3.79 15.943c1.47 5.031 4.41 10.526 7.039 15.944-11.448 9.364-18.641 20.2-21.117 27.32-4.563 13.157-1.005 19.116 5.724 20.51 3.017.618 7.349-.775 10.597-2.168 4.022-1.315 8.896-3.56 13.382-6.888 7.735-5.727 15.16-13.699 14.774-24.456-.232-4.954-1.547-9.83-3.326-14.473 9.746-4.025 22.354-6.347 38.366-4.412 34.42 4.025 41.227 25.54 39.912 34.518-1.314 8.978-8.508 13.931-10.906 15.48-2.398 1.47-3.171 2.011-2.94 3.095.31 1.625 1.393 1.548 3.482 1.238 2.861-.464 18.1-7.352 18.718-23.915.929-21.283-19.26-44.501-55.073-44.27v.001zM197.429 304.09c-11.37 12.46-27.382 17.182-34.19 13.157-7.347-4.257-4.485-22.6 9.515-35.834 8.509-8.049 19.57-15.478 26.84-20.045 1.625-1.006 4.1-2.476 7.04-4.256.464-.31.773-.465.773-.465.542-.31 1.16-.696 1.78-1.083 5.182 18.884.231 35.446-11.758 48.526zm83.152-56.575c-3.945 9.674-12.3 34.518-17.327 33.125-4.331-1.161-6.961-19.968-.85-38.543 3.093-9.365 9.668-20.51 13.536-24.843 6.265-6.966 13.072-9.288 14.774-6.424 2.01 3.715-7.658 30.648-10.133 36.685zm68.61 32.815c-1.702.851-3.25 1.47-3.945 1.006-.542-.31.696-1.47.696-1.47s8.586-9.21 11.99-13.467c1.933-2.477 4.253-5.34 6.729-8.59v.928c0 11.145-10.675 18.575-15.47 21.593zm52.907-12.074c-1.237-.928-1.083-3.792 3.094-12.77 1.625-3.56 5.337-9.52 11.758-15.169.773 2.322 1.237 4.566 1.16 6.656-.078 13.931-9.978 19.116-16.012 21.283z" fill-rule="nonzero" fill="#CF649A"/></svg>