<svg width="640" height="384" viewBox="0 0 640 384" xmlns="http://www.w3.org/2000/svg"><title>sketch-logo</title><g fill="none" fill-rule="evenodd"><g fill-rule="nonzero"><path fill="#FFAE00" d="M162.5 273L73 168.987l38.771-52.55L162.5 111l50.729 5.436L252 168.986z"/><path fill="#EC6C00" d="M162.5 273L73 170h179z"/><path fill="#FFAE00" d="M162 273l-53-103h106z"/><path fill="#FFEFB4" d="M162 111l-53 59h106z"/><path d="M112 116l-20.047 26.683L73 169h36.813L112 116zm101 0l20.047 26.683L252 169h-36.813L213 116z" fill="#FFAE00"/><path d="M111.524 116.531L109 170l53-59-50.476 5.531zm101.952 0L216 170l-53-59 50.476 5.531z" fill="#FED305"/></g><text transform="translate(284 129)" font-size="91" font-family="HelveticaNeue, Helvetica Neue" fill="#000"><tspan x="0" y="87">Sketch</tspan></text></g></svg>