<svg width="640" height="384" viewBox="0 0 640 384" xmlns="http://www.w3.org/2000/svg" xmlns:xlink="http://www.w3.org/1999/xlink"><title>terminal-logo</title><defs><linearGradient x1="50%" y1="0%" x2="50%" y2="100%" id="c"><stop stop-color="#EFFDFE" offset="0%"/><stop stop-color="#929292" offset="98.107%"/></linearGradient><rect id="b" x="0" y="0" width="239" height="212" rx="11"/><filter x="-4.6%" y="-3.3%" width="109.2%" height="110.4%" filterUnits="objectBoundingBox" id="a"><feOffset dy="4" in="SourceAlpha" result="shadowOffsetOuter1"/><feGaussianBlur stdDeviation="3" in="shadowOffsetOuter1" result="shadowBlurOuter1"/><feComposite in="shadowBlurOuter1" in2="SourceAlpha" operator="out" result="shadowBlurOuter1"/><feColorMatrix values="0 0 0 0 0 0 0 0 0 0 0 0 0 0 0 0 0 0 0.3 0" in="shadowBlurOuter1"/></filter><linearGradient x1="50%" y1="0%" x2="50%" y2="100%" id="d"><stop stop-color="#1C1817" offset="0%"/><stop stop-color="#010101" offset="100%"/></linearGradient></defs><g fill="none" fill-rule="evenodd"><path d="M192 285h40.68v4.176h-17.928v47.232h-4.896v-47.232H192V285zm64.186 30.24a16.387 16.387 0 0 0-.9-4.968c-.552-1.584-1.332-2.988-2.34-4.212a11.596 11.596 0 0 0-3.672-2.952c-1.44-.744-3.072-1.116-4.896-1.116-1.872 0-3.528.372-4.968 1.116a11.596 11.596 0 0 0-3.672 2.952c-1.008 1.224-1.812 2.64-2.412 4.248a20.823 20.823 0 0 0-1.188 4.932h24.048zm-24.048 3.816c0 1.632.228 3.324.684 5.076.456 1.752 1.188 3.324 2.196 4.716 1.008 1.392 2.28 2.544 3.816 3.456 1.536.912 3.384 1.368 5.544 1.368 3.312 0 5.904-.864 7.776-2.592 1.872-1.728 3.168-4.032 3.888-6.912h4.536c-.96 4.224-2.724 7.488-5.292 9.792-2.568 2.304-6.204 3.456-10.908 3.456-2.928 0-5.46-.516-7.596-1.548s-3.876-2.448-5.22-4.248c-1.344-1.8-2.34-3.888-2.988-6.264-.648-2.376-.972-4.884-.972-7.524 0-2.448.324-4.848.972-7.2.648-2.352 1.644-4.452 2.988-6.3 1.344-1.848 3.084-3.336 5.22-4.464 2.136-1.128 4.668-1.692 7.596-1.692 2.976 0 5.52.6 7.632 1.8 2.112 1.2 3.828 2.772 5.148 4.716 1.32 1.944 2.268 4.176 2.844 6.696.576 2.52.816 5.076.72 7.668h-28.584zm35.53-19.8v37.152h4.536v-19.8c0-1.968.336-3.78 1.008-5.436.672-1.656 1.62-3.084 2.844-4.284 1.224-1.2 2.676-2.124 4.356-2.772 1.68-.648 3.552-.924 5.616-.828v-4.536c-3.36-.144-6.252.6-8.676 2.232-2.424 1.632-4.212 3.96-5.364 6.984h-.144v-8.712h-4.176zm23.507 0v37.152h4.536v-20.736c0-1.968.216-3.78.648-5.436.432-1.656 1.092-3.096 1.98-4.32.888-1.224 2.04-2.184 3.456-2.88 1.416-.696 3.084-1.044 5.004-1.044 1.44 0 2.664.24 3.672.72s1.812 1.14 2.412 1.98c.6.84 1.032 1.824 1.296 2.952s.396 2.316.396 3.564v25.2h4.536v-21.024c0-1.728.156-3.396.468-5.004.312-1.608.852-3.036 1.62-4.284a8.598 8.598 0 0 1 3.096-2.988c1.296-.744 2.928-1.116 4.896-1.116 3.264 0 5.544.804 6.84 2.412 1.296 1.608 1.944 3.948 1.944 7.02v24.984h4.536v-25.2c0-8.688-4.104-13.032-12.312-13.032-2.448 0-4.752.6-6.912 1.8-2.16 1.2-3.792 3.024-4.896 5.472-.672-2.448-2.004-4.272-3.996-5.472-1.992-1.2-4.212-1.8-6.66-1.8-3.024 0-5.508.648-7.452 1.944-1.944 1.296-3.516 3.096-4.716 5.4h-.216v-6.264h-4.176zM352.049 285v7.272h4.536V285h-4.536zm0 14.256v37.152h4.536v-37.152h-4.536zm14.002 0v37.152h4.536v-21.672c.048-1.824.348-3.516.9-5.076.552-1.56 1.32-2.904 2.304-4.032a10.52 10.52 0 0 1 3.6-2.664c1.416-.648 3.036-.972 4.86-.972 1.824 0 3.348.288 4.572.864 1.224.576 2.196 1.368 2.916 2.376.72 1.008 1.224 2.196 1.512 3.564.288 1.368.432 2.844.432 4.428v23.184h4.536v-23.904c0-2.208-.216-4.2-.648-5.976-.432-1.776-1.176-3.276-2.232-4.5-1.056-1.224-2.46-2.172-4.212-2.844-1.752-.672-3.924-1.008-6.516-1.008-2.64 0-5.064.684-7.272 2.052-2.208 1.368-3.744 3.18-4.608 5.436h-.144v-6.408h-4.536zm39.13 11.376c.144-2.16.6-4.032 1.368-5.616.768-1.584 1.812-2.88 3.132-3.888s2.868-1.752 4.644-2.232c1.776-.48 3.744-.72 5.904-.72 1.632 0 3.264.156 4.896.468 1.632.312 3.096.9 4.392 1.764 1.296.864 2.352 2.076 3.168 3.636.816 1.56 1.224 3.588 1.224 6.084v19.728c0 1.824.888 2.736 2.664 2.736.528 0 1.008-.096 1.44-.288v3.816c-.528.096-.996.168-1.404.216a13.67 13.67 0 0 1-1.548.072c-1.152 0-2.076-.156-2.772-.468-.696-.312-1.236-.756-1.62-1.332-.384-.576-.636-1.26-.756-2.052s-.18-1.668-.18-2.628h-.144a30.31 30.31 0 0 1-2.484 3.204 12.349 12.349 0 0 1-2.808 2.34c-1.032.624-2.208 1.104-3.528 1.44-1.32.336-2.892.504-4.716.504-1.728 0-3.348-.204-4.86-.612-1.512-.408-2.832-1.056-3.96-1.944-1.128-.888-2.016-2.016-2.664-3.384-.648-1.368-.972-2.988-.972-4.86 0-2.592.576-4.62 1.728-6.084 1.152-1.464 2.676-2.58 4.572-3.348 1.896-.768 4.032-1.308 6.408-1.62 2.376-.312 4.788-.612 7.236-.9.96-.096 1.8-.216 2.52-.36s1.32-.396 1.8-.756.852-.852 1.116-1.476c.264-.624.396-1.44.396-2.448 0-1.536-.252-2.796-.756-3.78a5.978 5.978 0 0 0-2.088-2.34c-.888-.576-1.92-.972-3.096-1.188a20.925 20.925 0 0 0-3.78-.324c-2.88 0-5.232.684-7.056 2.052-1.824 1.368-2.784 3.564-2.88 6.588h-4.536zm24.192 5.472h-.144c-.288.528-.84.912-1.656 1.152a16.9 16.9 0 0 1-2.16.504c-1.92.336-3.9.636-5.94.9-2.04.264-3.9.66-5.58 1.188-1.68.528-3.06 1.284-4.14 2.268-1.08.984-1.62 2.388-1.62 4.212 0 1.152.228 2.172.684 3.06a7.425 7.425 0 0 0 1.836 2.304 8.015 8.015 0 0 0 2.664 1.476 9.728 9.728 0 0 0 3.096.504c1.728 0 3.384-.264 4.968-.792s2.964-1.296 4.14-2.304a11.185 11.185 0 0 0 2.808-3.672c.696-1.44 1.044-3.072 1.044-4.896v-5.904zM443.88 285v51.408h4.536V285h-4.536z" fill="#373737"/><g transform="translate(201 42)"><use fill="#000" filter="url(#a)" xlink:href="#b"/><use fill="url(#c)" xlink:href="#b"/><rect stroke-opacity=".3" stroke="#000" x=".5" y=".5" width="238" height="211" rx="11"/><rect fill="url(#d)" x="4" y="4" width="231" height="203" rx="9"/><path fill="#FFF" d="M66 71h34v7H66z"/><path fill="#FFF" fill-rule="nonzero" d="M31 60v8l36.453-14v-7L31 33v8l25 9.5z"/></g></g></svg>