<svg width="640" height="384" viewBox="0 0 640 384" xmlns="http://www.w3.org/2000/svg"><title>Wordpress Logo</title><g fill="none"><path d="M249.095 314.126c5.09-5.93 1.5-13.77-6.808-14.872l-4.642-.615v19.128l4.61-.52c3.377-.382 5.205-1.216 6.84-3.12zm55.97 20.53c5.354-2.775 7.828-8.172 7.828-17.082 0-6.756-3.102-13.479-7.33-15.887-1.612-.918-5.68-1.977-9.04-2.352l-6.107-.683v18.196c0 16.28.18 18.304 1.71 19.235 2.014 1.224 9.393.41 12.938-1.427zm-86.965 5.38c0-1.514.651-1.958 2.876-1.958 5.225 0 5.919-2.378 5.919-20.294 0-14.635-.16-16.101-1.954-17.9-1.075-1.077-3.054-1.958-4.398-1.958-1.825 0-2.443-.517-2.443-2.041 0-2.001.323-2.035 16.369-1.705 14.728.302 16.783.557 20.502 2.54 9.18 4.897 9.674 17.226.905 22.656-1.823 1.13-4.13 2.054-5.128 2.054-2.364 0 10.43 13.06 14.855 15.164 4.196 1.996 10.527 1.925 12.234-.135 1.023-1.236 1.34-5.66 1.34-18.686 0-15.764-.144-17.173-1.896-18.457-1.044-.765-3.132-1.39-4.642-1.39-2.094 0-2.745-.465-2.745-1.959 0-1.876.651-1.958 15.43-1.958 17.373 0 24.716 1.344 30.936 5.664 12.07 8.384 11.685 28.725-.705 37.096-6.682 4.516-11.804 5.227-37.647 5.225h-23.161l-7.724-9.792c-4.248-5.386-8.096-9.792-8.55-9.792-.456 0-.828 2.546-.828 5.658 0 6.923 1.826 10.011 5.919 10.011 2.224 0 2.876.444 2.876 1.959 0 1.868-.652 1.958-14.17 1.958-13.519 0-14.17-.09-14.17-1.958v-.001zm-20.754-4.527c9.558-6.978 9.538-28.004-.033-34.834-4.251-3.033-12.734-3.515-17.326-.983-5.1 2.812-8.795 10.48-8.795 18.246 0 7.868 3.74 15.7 8.795 18.42 4.474 2.406 13.506 1.965 17.36-.849zm-16.87 7.588c-8.728-2.322-17.67-10.227-19.862-17.56-3.738-12.504 2.523-25.05 15.414-30.887 6.384-2.89 17.345-2.772 24.215.263 5.631 2.487 12.342 9.101 14.511 14.303 1.944 4.663 1.728 13.828-.437 18.58-2.16 4.737-9.369 11.579-14.475 13.735-4.325 1.827-15.107 2.698-19.366 1.566zm-83.477-24.36c-10.503-32.634-11.492-34.521-18.093-34.521-1.856 0-2.507-.51-2.507-1.96 0-1.876.651-1.958 15.636-1.958 14.984 0 15.636.082 15.636 1.959 0 1.513-.652 1.959-2.862 1.959-2.605 0-5.932 2.098-5.935 3.742 0 .365 2.28 7.845 5.068 16.621 3.813 12.001 5.295 15.553 5.98 14.327.5-.896 3.642-9.839 6.982-19.873 8.2-24.634 7.958-24.643 16.155.569 3.465 10.659 6.553 19.705 6.862 20.102.31.398 2.953-6.557 5.876-15.454 5.912-17.996 5.888-19.316-.357-19.849-2.773-.236-3.566-.726-3.566-2.203 0-1.79.794-1.9 13.682-1.9 13.03 0 13.681.093 13.681 1.959 0 1.593-.651 1.959-3.495 1.959-6.49 0-7.884 2.536-17.93 32.612-7.021 21.018-9.438 27.159-10.597 26.931-1.02-.2-3.522-6.583-7.792-19.881-3.46-10.773-6.595-19.91-6.968-20.304-.373-.394-3.73 8.53-7.46 19.831-5.03 15.239-7.183 20.549-8.332 20.549-1.162 0-3.57-6.281-9.664-25.217z" fill="#21759A"/><path d="M410.053 316.138c7.247-3.034 6.519-14.07-1.067-16.18-8.108-2.256-8.14-2.223-8.14 8.25v9.304h2.962c1.63 0 4.44-.618 6.245-1.374zM381.3 340.037c0-1.513.652-1.959 2.862-1.959 1.574 0 3.518-.657 4.319-1.46 1.979-1.983 2.964-12.403 2.337-24.714-.577-11.341-1.848-13.978-6.738-13.978-2.172 0-2.78-.45-2.78-2.056 0-2.022.272-2.05 16.858-1.694 17.745.38 19.304.73 24.383 5.476 6.767 6.322 3.086 19.275-6.048 21.285l-2.926.644 4.633 5.38c8.743 10.151 17.703 13.931 21.191 8.94 1.226-1.753 1.521-5.274 1.521-18.117 0-14.635-.16-16.101-1.954-17.9-1.075-1.077-3.054-1.958-4.398-1.958-1.791 0-2.443-.522-2.443-1.959 0-1.897.652-1.958 20.912-1.958h20.911l.693 6.913c.381 3.802.445 7.162.142 7.466-1.214 1.216-3.324-.669-3.883-3.47-.77-3.857-2.506-4.682-11.656-5.536l-7.574-.707v15.923l4.153-.618c4.573-.68 6.597-2.508 6.597-5.958 0-1.609.564-2.261 1.954-2.261 1.841 0 1.955.652 1.955 11.262 0 10.609-.114 11.262-1.955 11.262-1.512 0-1.954-.653-1.954-2.883 0-3.533-3.05-5.931-7.547-5.931h-3.203v6.257c0 8.844 1.793 10.9 9.444 10.828 8.693-.08 10.768-.906 12.19-4.846.829-2.298 1.854-3.425 3.116-3.425 1.584 0 1.784.48 1.27 3.06-.337 1.683-.612 4.768-.612 6.856v3.794l-29.561-.047-29.562-.047-7.658-9.746c-4.212-5.36-8.06-9.747-8.551-9.747-1.984 0-.015 13.405 2.174 14.794.732.465 2.54.852 4.018.86 2.031.011 2.688.494 2.688 1.974 0 1.872-.652 1.959-14.66 1.959-14.006 0-14.658-.087-14.658-1.959zm-19.706-31.745c7.35-3.808 7.35-16.924 0-20.732-1.47-.762-4.894-1.386-7.608-1.386h-4.935v23.504h4.935c2.714 0 6.138-.624 7.608-1.386zm-35.02 31.745c0-1.53.652-1.959 2.976-1.959 1.821 0 3.868-.893 5.273-2.301 1.97-1.975 2.4-3.679 3.023-11.997.4-5.332.469-15.178.154-21.88-.672-14.268-1.894-16.99-7.858-17.499-2.824-.24-3.568-.715-3.568-2.275 0-1.922.503-1.964 19.79-1.655 19.735.316 19.802.324 24.52 3.104 8.04 4.735 10.56 13.682 6.263 22.223-3.267 6.491-10.142 9.756-20.548 9.756h-7.737l.339 9.39c.306 8.475.564 9.575 2.646 11.263 1.269 1.03 3.577 1.871 5.13 1.871 2.172 0 2.824.452 2.824 1.959 0 1.882-.652 1.958-16.613 1.958-15.962 0-16.614-.076-16.614-1.958zm202.29-6.366c0-9.488.146-10.283 1.877-10.283 1.295 0 2.079.92 2.526 2.962.795 3.624 4.65 8.367 8.37 10.294 6.141 3.183 13.613.808 13.613-4.327 0-3.529-2.686-5.91-11.727-10.398-8.066-4.003-11.211-6.484-13.285-10.479-2.994-5.766-.484-13.89 5.18-16.763 5.545-2.814 9.707-2.843 18.61-.13 1.65.502 2.2.274 2.2-.914 0-.93.806-1.583 1.954-1.583 1.81 0 1.955.653 1.955 8.814 0 7.833-.196 8.814-1.759 8.814-1.117 0-2.202-1.232-2.977-3.38-2.639-7.312-11.356-10.854-15.787-6.413-4.102 4.111-1.862 6.924 9.929 12.47 10.802 5.079 14.503 9.185 14.503 16.093 0 8.9-5.23 14.198-15.013 15.21-3.992.413-6.244.062-9.847-1.535-4.812-2.133-6.412-2.028-6.412.42 0 .776-.88 1.411-1.955 1.411-1.83 0-1.954-.653-1.954-10.283zm-42.998 0c0-9.63.124-10.283 1.954-10.283 1.204 0 1.96.659 1.97 1.714.03 3.144 4.341 9.323 7.787 11.16 6.862 3.659 14.674 1.327 14.674-4.379 0-3.131-2.919-5.522-13.192-10.805-10.349-5.32-13.193-8.66-13.193-15.49 0-5.103 2.312-8.743 7.146-11.248 3.988-2.067 12.052-2.136 16.027-.138 2.974 1.495 3.171 1.48 3.73-.287.325-1.025 1.441-1.865 2.48-1.865 1.727 0 1.889.755 1.889 8.814 0 8.042-.165 8.814-1.88 8.814-1.276 0-2.236-1.087-2.996-3.396-1.485-4.51-6.147-8.356-10.13-8.356-6.963 0-9.932 5.959-4.784 9.604 1.478 1.047 6.206 3.676 10.506 5.843 10.202 5.141 12.426 7.574 12.954 14.17.52 6.48-2.195 11.002-8.527 14.208-5.344 2.705-10.88 2.781-16.497.226-4.407-2.003-6.01-1.852-6.01.566 0 .776-.879 1.411-1.954 1.411-1.83 0-1.954-.653-1.954-10.283zM280.394 154.198c-9.006-26.79-16.372-49.205-16.37-49.811.004-.63 2.332-1.296 5.43-1.554 6.373-.53 9.363-2.663 7.272-5.189-1.15-1.387-3.237-1.495-17.263-.888-8.775.38-15.955.376-15.955-.008 0-1.684 6.27-9.444 12.868-15.925 16.89-16.593 39.427-25.754 63.358-25.754 10.827 0 18.92 1.369 30.15 5.099 9.103 3.023 23.313 11.04 28.753 16.22l2.712 2.583-4.3 1.257c-5.47 1.598-9.926 6.152-11.275 11.52-1.405 5.593.315 11.226 6.737 22.066 11.446 19.318 11.517 26.974.587 63.06-4.062 13.407-7.605 24.597-7.875 24.868-.27.27-.712-.123-.983-.873-1.496-4.138-32.78-97.15-32.78-97.459 0-.203 1.87-.413 4.154-.466 6.754-.159 9.04-1.134 9.04-3.857V96.69l-26.604-.048c-20.879-.038-26.708.224-27.088 1.217-.994 2.595.675 4.118 5.16 4.708l5.93.781c.84.112 4.168 7.779 8.562 19.717l7.188 19.534-10.016 30.167c-5.51 16.591-10.242 30.16-10.517 30.153-.276-.007-7.87-21.931-16.875-48.72zm84.293 71.004c0-.14 6.665-19.42 14.81-42.845 18.3-52.622 19.53-57.042 19.591-70.442.041-8.93.217-9.99 1.393-8.38 2.298 3.15 6.958 16.283 8.585 24.193 1.776 8.639 2.04 26.054.525 34.627-3.367 19.05-13.584 37.965-27.461 50.84-7.45 6.911-17.443 13.79-17.443 12.007zm-93.816-1.52c-21.642-13.917-36.559-36.231-40.994-61.327-1.613-9.122-1.228-25.41.837-35.436 1.766-8.575 5.468-18.815 6.447-17.834.418.419 43.483 118.289 43.483 119.014 0 1.194-3.52-.397-9.773-4.418zm36.683 13.384c-10.11-1.299-14.47-2.654-13.839-4.301.292-.763 6.312-18.253 13.378-38.868 7.065-20.616 13.209-38.144 13.652-38.952.63-1.148 1.05-.827 1.928 1.47 4.356 11.404 27.355 75.124 27.355 75.789 0 2.026-22.361 6.155-31.735 5.86-2.164-.069-6.996-.518-10.74-.998zm29.274 8.44c50.939-8.902 88.356-58.085 82.676-108.674-2.849-25.372-11.99-44.111-30.337-62.191-19.214-18.934-42.601-28.55-69.433-28.55-18.535 0-35.844 4.813-51.977 14.456-10.041 6-25.285 20.766-31.578 30.586-23.646 36.899-22.109 81.196 4.028 116.045 22.25 29.668 60.15 44.702 96.62 38.328zm-35.999 5.87c-21.624-4.093-40.465-13.997-55.866-29.364-41.047-40.958-41.965-106.99-2.073-149.083 15.243-16.085 35.015-26.987 56.273-31.028 10.517-1.999 30.624-1.999 41.141 0 38.613 7.34 70.508 36.717 81.462 75.03 14.502 50.718-9.712 103.79-57.618 126.287-13.3 6.246-24.799 8.808-41.483 9.242-9.83.255-16.518-.076-21.836-1.083z" fill="#464646"/></g></svg>